<svg xmlns="http://www.w3.org/2000/svg" viewBox="0 0 849.27 877.74"><defs><style>.cls-1{fill:#808081;}.cls-2{fill:#fff;}.cls-3{fill:#0871b8;}</style></defs><g id="Camada_2" data-name="Camada 2"><g id="Camada_1-2" data-name="Camada 1"><polygon class="cls-1" points="340.34 0 509.43 0 587.44 135.12 590.57 140.55 593.97 146.44 590.54 152.37 587.41 157.79 509.42 292.87 340.33 292.87 255.79 146.43 340.34 0"/><path class="cls-2" d="M340.34,0l-4.7,8.14,1.36.78L341.69.78,340.36,0V0h0V0l0,0Zm-9.4,16.27-4.69,8.14,1.35.78,4.7-8.14-1.36-.78Zm-9.39,16.27-4.7,8.14,1.36.78,4.7-8.14-1.36-.78Zm-9.39,16.27-3.68,6.37v0h0l-.08.15h0l-.9,1.57,1.36.78,4.69-8.14-1.35-.78Zm-9.4,16.27-3.27,5.68h0v0h0v0l-1.38,2.4,1.35.78,4.7-8.14-1.36-.78Zm-9.39,16.27-2.84,4.93h0v0h0l-1.8,3.12,1.36.78,4.69-8.14-1.35-.78ZM284,97.62l-2.48,4.29h0l0,0h0v0h0v0h0l0,0h0l-2.13,3.69,1.35.78,4.7-8.14L284,97.62Zm-9.4,16.27-4.7,8.14,1.36.78,4.7-8.14-1.36-.78Zm-9.39,16.27-2.29,4h0l0,0h0v0h0l0,0h0l0,0h0l-2.28,4,1.36.78,4.69-8.14-1.35-.78Zm-8,15.49-1.35.78h0l4.7,8.14,1.35-.79-4.69-8.13Zm9.39,16.27-1.36.78.37.64h0l0,0h0l0,0h0v0h0l4.24,7.34,1.36-.79-4.7-8.13Zm9.39,16.27-1.35.78,4.69,8.14,1.36-.79-4.7-8.13Zm9.4,16.27-1.36.78,1.53,2.65h0l0,0h0v0h0l3.14,5.43,1.35-.79-4.69-8.13Zm9.39,16.27-1.36.78h0v0h.05v0h0v0h0v0h0v0h0l0,0h0l0,0h0v0h0l0,0h0l0,0h0v0h0l0,0h0v0h0l0,0h0v0h0v0h0l0,0h0l0,0h0v0h0v0l0,0h0v0h0l0,0,0,0h0l0,.06h0v0h0l0,.05h0l0,.06h0v0h0l.07.11h0l0,0h0v0h0l0,0h0l.13.23h0l.16.28h0l0,.06h0l0,.08h0l3.48,6,1.36-.79-4.7-8.13ZM304.11,227l-1.35.78,4.69,8.14,1.36-.78-4.7-8.14Zm9.4,16.27-1.36.78,4.7,8.14,1.35-.78-4.69-8.14Zm9.39,16.27-1.36.78,3.88,6.72h0l0,.07h0l.75,1.3,1.35-.78-4.69-8.14Zm9.39,16.27-1.35.78,1.94,3.37h0l0,0h0v0h0v0h0l.09.16h0c1.25,2.15,2.57,4.45,2.57,4.45L337,284l-4.7-8.14Zm17.43,15.5h-9.39v1.55h0v0h9.39v-1.56Zm-9.39,1.55h0Zm18.78-1.55v1.56h9.4v-1.56Zm18.79,0v1.56h9.39v-1.56Zm18.79,0v1.56h9.39v-1.56Zm28.18,0h-9.4v1.56h9.4v-1.56Zm9.39,0v1.56h9.39v-1.56Zm18.79,0v1.56h9.39v-1.56Zm18.78,0v1.56h9.4v-1.56Zm28.19,0h-9.4v1.56H500v-1.56ZM512.76,284l-4.69,8.12,1.34.77h0l-1.34-.77,1.34.77h0s.08-.12.2-.35h0c.12-.22.31-.53.52-.91h0l0,0h0l.06-.11h0l.09-.15h0l.18-.32h0l.19-.33h0l0-.08h0l0-.09h0l0,0h0v0h0v0h0l0,0h0v0h0v0h0v0h0l0,0h0v0h0l0,0h0l0,0h0v0h0v0h0l0,0h0l0-.05h0l0,0v0h0v0h0l0,0h0l.05-.09h0l.06-.1h0v0h0l.06-.09h0l.87-1.5h0l1.76-3.05-1.35-.78Zm9.39-16.27-4.7,8.13,1.36.79,4.7-8.14-1.36-.78Zm9.39-16.27-4.69,8.13,1.35.79,3-5.19h0v0h0v0h0l1.62-2.81-1.36-.78Zm9.4-16.27-4.7,8.13,1.36.78,2.23-3.87h0l0,0h0l0-.05h0l2.38-4.13-1.35-.78Zm9.39-16.27L545.64,227l1.35.78,4.7-8.13-1.36-.78Zm9.4-16.27-4.7,8.13,1.36.78,4.69-8.13-1.35-.78Zm9.39-16.27-4.7,8.13,1.36.78.2-.34h0c.06-.12.14-.25.23-.41h0a2.55,2.55,0,0,0,.14-.24h0a.54.54,0,0,1,.07-.13h0l0,0h0l0,0h0l0,0h0v0h0v0h0v0h.05v0h0v0h0l0-.06h0v0h0v0h0v0h0v0h0l3.64-6.3-1.36-.78Zm9.39-16.27-4.69,8.13,1.35.78,4.7-8.13-1.36-.78Zm9.4-16.27-1.85,3.2-2.85,4.93,1.36.78,2.85-4.93.07-.14h0l0-.07h0l0-.08v0h0v0h0l0,0h0v0h0v0h0l1.6-2.77-1.35-.78Zm1.37-15.49-1.35.78,1.28,2.23,3.4,5.89,1.34-.77h0l-1.34.77,1.34-.77h0l-.15-.25h0c-.09-.17-.22-.4-.38-.67h0l-.55-1h0l-.62-1.08h0l-.63-1.08h0l-.54-.94h0c-.16-.28-.29-.51-.39-.67h0l-.14-.25h0l-1.29-2.23Zm-9.39-16.27-1.36.78,4.7,8.14,1.36-.79-2.35-4.06h0v0h0v0h0v0h0l0,0h0l0,0h0l0,0h0l-.06-.09h0v0h0l0,0h0l0,0h0l-2.08-3.61Zm-9.39-16.27-1.36.78,4.7,8.14,1.35-.79L572,108.35h0l0,0h0l0,0h0l0-.08h0l0-.08h0l-.05-.08h0v0h0l0,0h0v0h0l-1.2-2.08Zm-9.4-16.27-1.35.78,4.69,8.14,1.36-.79-4.7-8.13Zm-9.39-16.27-1.36.78,4.7,8.14,1.36-.79-4.7-8.13ZM542.32,57l-1.36.78,4.7,8.14L547,65.1,542.32,57Zm-9.4-16.27-1.35.78,4.69,8.14,1.36-.79-3.88-6.71h0l0-.07h0l0,0h0l0,0v0h0v0h0l0,0h0v0h0v0h0v0h0l0-.09h0l0-.05h0v0h0l-.48-.83Zm-9.39-16.27-1.36.78,4.7,8.14,1.35-.79-4.69-8.13Zm-9.4-16.27-1.35.78,4.7,8.14,1.35-.79L515.17,10h0v0h0l0,0v0h0l0,0h0l0,0h0v0h0l0,0h0l0,0h0l0,0h0l0-.07h0l0-.07h0l-.74-1.27ZM500.06,0V1.57h9.36V0h0V0h-9.36ZM481.27,0V1.57h9.39V0h-9.39ZM462.48,0V1.57h9.4V0h-9.4ZM443.69,0V1.57h9.4V0h-9.4ZM424.91,0V1.57h9.39V0ZM406.12,0V1.57h9.39V0ZM387.33,0V1.57h9.4V0ZM368.55,0V1.57h9.39V0ZM349.76,0V1.57h9.39V0Z"/><path class="cls-3" d="M490.55,20.08H359.21a12.64,12.64,0,0,0-10.93,6.31L282.61,140.13a12.62,12.62,0,0,0,0,12.61l65.67,113.75a12.64,12.64,0,0,0,10.93,6.31H490.55a12.61,12.61,0,0,0,10.92-6.31l65.68-113.75a12.62,12.62,0,0,0,0-12.61L501.48,26.38A12.63,12.63,0,0,0,490.55,20.08Z"/><rect class="cls-2" x="585.31" y="154.15" width="6.26" height="1.24" transform="translate(160.21 587.01) rotate(-60)"/><rect class="cls-2" x="580.98" y="151.01" width="6.26" height="2.5" transform="translate(160.32 582.11) rotate(-60.02)"/><polygon class="cls-2" points="574.8 149.59 576.98 148.35 575.89 146.46 575.9 146.45 577 144.54 574.83 143.29 574.46 143.93 574.44 143.91 573.88 142.91 571.7 144.15 572.98 146.4 573 146.44 573 146.45 571.69 148.71 573.86 149.97 574.44 148.97 574.8 149.59"/><rect class="cls-2" x="587.86" y="135.06" width="1.25" height="6.26" transform="translate(8.86 309.78) rotate(-29.71)"/><polygon class="cls-2" points="578.77 140.12 576.59 141.36 579.49 146.44 579.5 146.46 576.58 151.53 578.75 152.78 581.88 147.36 580.32 146.46 580.3 146.45 581.87 145.56 578.77 140.12"/><rect class="cls-2" x="582.88" y="137.54" width="2.51" height="6.26" transform="translate(7.01 307.8) rotate(-29.69)"/><polygon class="cls-2" points="269.56 146.37 269.58 146.38 268.01 147.26 271.08 152.72 273.26 151.49 270.39 146.4 270.38 146.38 273.34 141.33 271.18 140.06 268.01 145.47 269.56 146.37"/><rect class="cls-2" x="262.68" y="139.3" width="6.26" height="2.5" transform="translate(10.29 299.04) rotate(-59.68)"/><rect class="cls-2" x="258.36" y="137.4" width="6.26" height="1.24" transform="translate(9.99 293.52) rotate(-59.55)"/><rect class="cls-2" x="264.47" y="149.01" width="2.51" height="6.26" transform="translate(-40.47 149.99) rotate(-29.39)"/><rect class="cls-2" x="260.73" y="151.47" width="1.25" height="6.26" transform="translate(-42.23 147.96) rotate(-29.35)"/><polygon class="cls-2" points="275.1 143.27 272.92 144.5 273.99 146.41 273.99 146.41 272.88 148.31 275.04 149.58 275.41 148.94 275.43 148.96 275.99 149.96 278.17 148.73 276.9 146.47 276.88 146.43 276.88 146.43 278.2 144.17 276.04 142.9 275.46 143.9 275.1 143.27"/><rect class="cls-2" x="339.11" y="278.42" width="2.5" height="6.26" transform="translate(-96.08 213.44) rotate(-30.73)"/><rect class="cls-2" x="335.44" y="280.98" width="1.24" height="6.26" transform="translate(-97.89 211.03) rotate(-30.65)"/><polygon class="cls-2" points="347.67 280.38 344.69 275.34 342.53 276.62 345.73 282 347.27 281.09 347.29 281.08 347.3 282.88 353.56 282.84 353.55 280.33 347.7 280.38 347.67 280.38"/><polygon class="cls-2" points="350.87 274.72 350.87 274.71 349.53 272.46 347.38 273.74 347.97 274.74 347.25 274.74 347.26 277.25 349.45 277.23 349.45 277.24 350.57 279.13 352.73 277.85 352.35 277.21 352.38 277.21 353.52 277.2 353.51 274.7 350.92 274.72 350.87 274.72"/><rect class="cls-2" x="347.36" y="291.63" width="6.26" height="1.25" transform="translate(-1.92 2.31) rotate(-0.38)"/><rect class="cls-2" x="347.33" y="285.99" width="6.26" height="2.51" transform="translate(-2.07 2.55) rotate(-0.42)"/><rect class="cls-2" x="332.64" y="8.38" width="6.26" height="1.24" transform="translate(159.66 295.02) rotate(-59.91)"/><polygon class="cls-2" points="347.02 11.9 345.47 11 342.33 16.42 344.5 17.67 347.43 12.61 347.46 12.61 353.3 12.59 353.29 10.08 347.03 10.1 347.04 11.91 347.02 11.9"/><polygon class="cls-2" points="349.24 15.73 347.05 15.74 347.06 18.24 347.79 18.24 347.21 19.24 349.38 20.5 350.69 18.23 350.69 18.23 350.74 18.23 353.32 18.22 353.31 15.71 352.17 15.72 352.14 15.72 352.51 15.08 350.35 13.82 349.24 15.73 349.24 15.73"/><rect class="cls-2" x="336.97" y="10.26" width="6.26" height="2.5" transform="translate(159.7 300.05) rotate(-59.92)"/><rect class="cls-2" x="346.99" y="0.07" width="6.26" height="1.25" transform="translate(0 1.28) rotate(-0.21)"/><rect class="cls-2" x="347.01" y="4.45" width="6.26" height="2.51" transform="translate(-0.02 1.48) rotate(-0.24)"/><rect class="cls-2" x="508.18" y="8.24" width="2.5" height="6.26" transform="matrix(0.86, -0.51, 0.51, 0.86, 65.6, 261.7)"/><rect class="cls-2" x="513.11" y="5.69" width="1.24" height="6.26" transform="translate(67.28 263.14) rotate(-30.65)"/><polygon class="cls-2" points="502.52 11.84 502.5 11.85 502.49 10.04 496.23 10.09 496.25 12.59 502.09 12.55 502.12 12.55 505.11 17.58 507.26 16.3 504.06 10.92 502.52 11.84"/><polygon class="cls-2" points="502.53 15.68 500.35 15.69 500.34 15.69 499.22 13.8 497.06 15.08 497.44 15.71 497.41 15.71 496.27 15.72 496.29 18.23 498.87 18.21 498.92 18.21 498.92 18.21 500.26 20.46 502.42 19.18 501.83 18.19 502.55 18.18 502.53 15.68"/><rect class="cls-2" x="496.2" y="4.43" width="6.26" height="2.51" transform="translate(-0.03 3.5) rotate(-0.4)"/><rect class="cls-2" x="496.17" y="0.04" width="6.26" height="1.25" transform="translate(0.01 4.12) rotate(-0.47)"/><rect class="cls-2" x="506.3" y="280.23" width="6.26" height="2.5" transform="translate(10.41 581.03) rotate(-59.9)"/><rect class="cls-2" x="510.63" y="283.37" width="6.26" height="1.24" transform="translate(10.47 586.16) rotate(-59.91)"/><polygon class="cls-2" points="500.16 272.5 498.85 274.76 498.85 274.76 498.8 274.76 496.21 274.77 496.22 277.28 497.37 277.28 497.39 277.28 497.02 277.92 499.19 279.17 500.29 277.27 500.3 277.26 502.48 277.25 502.47 274.75 501.75 274.75 502.33 273.75 500.16 272.5"/><polygon class="cls-2" points="502.08 280.39 496.23 280.41 496.24 282.92 502.51 282.89 502.5 281.09 502.51 281.1 504.07 281.99 507.21 276.58 505.04 275.32 502.11 280.39 502.08 280.39"/><rect class="cls-2" x="496.28" y="291.67" width="6.26" height="1.25" transform="translate(-1.05 1.8) rotate(-0.21)"/><rect class="cls-2" x="496.26" y="286.03" width="6.26" height="2.51" transform="translate(-1.21 2.11) rotate(-0.24)"/><polygon class="cls-1" points="340.34 584.8 509.43 584.8 587.44 719.92 590.57 725.35 593.97 731.24 590.54 737.17 587.41 742.59 509.42 877.67 340.33 877.67 255.79 731.23 340.34 584.8"/><path class="cls-2" d="M340.34,584.8l-4.7,8.13,1.36.79,4.69-8.14-1.33-.77h0Zm-9.4,16.27-4.69,8.13,1.35.79,4.7-8.14-1.36-.78Zm-9.39,16.27-4.7,8.13,1.36.79,4.7-8.14-1.36-.78Zm-9.39,16.27L308.48,640v0h0l-.08.15h0l-.9,1.56,1.36.79,4.69-8.14-1.35-.78Zm-9.4,16.27-3.27,5.68h0v0h0v0L298.07,658l1.35.79,4.7-8.14-1.36-.78Zm-9.39,16.27-2.84,4.92h0v0h0v0h0c-1,1.68-1.8,3.12-1.8,3.12l1.36.79,4.69-8.14-1.35-.78ZM284,682.42l-2.48,4.29h0l0,0h0v0h0v0h0l0,0h0l-2.13,3.68,1.35.79,4.7-8.14-1.35-.78Zm-9.4,16.27-4.7,8.13,1.36.79,4.7-8.14-1.36-.78ZM265.19,715l-2.29,4h0l0,0h0v0h0l0,0h0l0,.06h0l-2.28,3.94,1.36.79,4.69-8.14-1.35-.78Zm-8,15.49-1.35.78h0l4.7,8.13,1.35-.78-4.69-8.13Zm9.39,16.27-1.36.78.37.64h0l0,.05h0v0h0l0,0h0v0h0l4.24,7.33,1.36-.78-4.7-8.13ZM275.93,763l-1.35.78,4.69,8.14,1.36-.79-4.7-8.13Zm9.4,16.27L284,780l1.53,2.65h0l0,0h0v0h0l3.14,5.43,1.35-.79-4.69-8.13Zm9.39,16.27-1.36.78h0v0h.05v0h0v0h0v0h0v0h0l0,0h0l0,0h0v0h0l0,0h0l0,0h0v0h0v0h0l0,0h0v0h0l0,0h0v0h0v0h0l0,0h0v0h0l0,0h0v0l0,0h0v0h0v0h0l0,0,0,0h0l0,.06h0v0h0l0,0h0l0,.06h0v0h0l.07.11h0l0,0h0l0,0h0l.13.23h0l.16.27h0l0,.07h0l0,.08h0l3.48,6,1.36-.79-4.7-8.13Zm9.39,16.27-1.35.78,4.69,8.14,1.36-.79-4.7-8.13Zm9.4,16.27-1.36.78,4.7,8.14,1.35-.79-4.69-8.13Zm9.39,16.27-1.36.78,3.88,6.72h0l0,.07h0v0h0l.75,1.3,1.35-.79-4.69-8.13Zm9.39,16.27-1.35.78,1.94,3.37h0l0,0h0v0h0v0h0l.09.17h0c1.25,2.15,2.57,4.45,2.57,4.45l1.36-.79-4.7-8.13Zm17.43,15.5h-9.39v1.55h0v0h9.39v-1.56Zm-9.39,1.55h0Zm18.78-1.55v1.56h9.4v-1.56Zm18.79,0v1.56h9.39v-1.56Zm18.79,0v1.56h9.39v-1.56Zm28.18,0h-9.4v1.56h9.4v-1.56Zm9.39,0v1.56h9.39v-1.56Zm18.79,0v1.56h9.39v-1.56Zm18.78,0v1.56h9.4v-1.56Zm28.19,0h-9.4v1.56H500v-1.56Zm12.74-7.34-4.69,8.12,1.34.77h0l-1.34-.77,1.34.77h0l.2-.35h0l.52-.91h0l0,0h0l.06-.1h0l.09-.15h0l.18-.31h0l.19-.33h0l0-.08h0l0-.08h0l0,0h0v0h0v0h0l0,0h0v0h0v0h0v0h0l0,0h0v0h0l0,0h0l0,0h0v0h0v0h0l0,0h0l0,0h0l0,0h0v0h0l0,0h0l.05-.09h0l.06-.11h0v0h0l.06-.09h0l.87-1.51h0l1.76-3.05-1.35-.78Zm9.39-16.27-4.7,8.13,1.36.78,4.7-8.13-1.36-.78Zm9.39-16.27-4.69,8.13,1.35.78,3-5.18h0v0h0v0h0L532.9,837l-1.36-.78Zm9.4-16.27-4.7,8.13,1.36.78,2.23-3.87h0l0,0v0h0l0,0h0l2.38-4.13-1.35-.78Zm9.39-16.27-4.69,8.13,1.35.78,4.7-8.13-1.36-.78Zm9.4-16.27-4.7,8.13,1.36.78,4.69-8.13-1.35-.78Zm9.39-16.27-4.7,8.13,1.36.78.2-.35h0l.23-.4h0l.14-.24h0a.75.75,0,0,1,.07-.12h0l0,0h0l0,0h0l0,0h0v0h0v0h0v0h.05v0h0v0h0l0-.06h0v0h0v0h0v0h0v0h0l3.64-6.3-1.36-.78Zm9.39-16.27L573.82,763l1.35.78,4.7-8.13-1.36-.78Zm9.4-16.27-1.85,3.2-2.85,4.93,1.36.78,2.85-4.93.07-.14h0l0-.07h0l0-.08v0h0v0h0l0,0h0v0h0v0h0l1.6-2.77-1.35-.78Zm1.37-15.49-1.35.78,1.28,2.23,3.4,5.89,1.34-.77h0l-1.34.77,1.34-.77h0l-.15-.26h0l-.38-.66h0l-.55-1h0l-.62-1.08h0l-.63-1.08h0l-.54-.94h0c-.16-.28-.29-.51-.39-.67h0l-.14-.25h0l-1.29-2.23Zm-9.39-16.27-1.36.78,4.7,8.13,1.36-.78-2.35-4.06h0v0h0v0h0v0h0l0,0h0l0-.05h0l0,0h0l-.06-.09h0v0h0l0,0h0l0,0h0l-2.08-3.6Zm-9.39-16.27-1.36.78,4.7,8.13,1.35-.78L572,693.15h0l0,0h0l0-.05h0l0-.08h0l0-.08h0l-.05-.08v0h0l0,0h0v0h0l-1.2-2.08Zm-9.4-16.27-1.35.78,4.69,8.13,1.36-.78-4.7-8.13ZM551.71,658l-1.36.78,4.7,8.13,1.36-.78-4.7-8.13Zm-9.39-16.27-1.36.78,4.7,8.13,1.35-.78-4.69-8.13Zm-9.4-16.27-1.35.78,4.69,8.13,1.36-.78-3.88-6.72h0l0-.07h0l0,0h0l0,0v0h0l0,0h0v0h0v0h0v0h0v0h0l0-.09h0l0,0h0v0h0l-.48-.82Zm-9.39-16.27-1.36.78,4.7,8.13,1.35-.78-4.69-8.13ZM514.13,593l-1.35.78,4.7,8.13,1.35-.78-3.66-6.34h0v0h0l0,0v0h0l0,0h0v0h0l0,0h0l0,0h0l0,0h0l0,0h0l0-.07h0l0-.07h0c-.44-.76-.74-1.26-.74-1.26Zm-14.07-8.16v1.56h9.36v-1.53h0v0h-9.36Zm-18.79,0v1.56h9.39V584.8h-9.39Zm-18.79,0v1.56h9.4V584.8h-9.4Zm-18.79,0v1.56h9.4V584.8h-9.4Zm-18.78,0v1.56h9.39V584.8Zm-18.79,0v1.56h9.39V584.8Zm-18.79,0v1.56h9.4V584.8Zm-18.78,0v1.56h9.39V584.8Zm-18.79,0v1.56h9.39V584.8Z"/><path class="cls-3" d="M490.55,604.87H359.21a12.64,12.64,0,0,0-10.93,6.31L282.61,724.93a12.62,12.62,0,0,0,0,12.61l65.67,113.75a12.64,12.64,0,0,0,10.93,6.31H490.55a12.61,12.61,0,0,0,10.92-6.31l65.68-113.75a12.62,12.62,0,0,0,0-12.61L501.48,611.18A12.64,12.64,0,0,0,490.55,604.87Z"/><rect class="cls-2" x="585.31" y="738.94" width="6.26" height="1.24" transform="translate(-346.26 879.43) rotate(-60)"/><rect class="cls-2" x="580.98" y="735.81" width="6.26" height="2.5" transform="translate(-346.22 874.67) rotate(-60.02)"/><polygon class="cls-2" points="574.8 734.39 576.98 733.15 575.89 731.25 575.9 731.25 577 729.34 574.83 728.09 574.46 728.73 574.44 728.71 573.88 727.71 571.7 728.95 572.98 731.2 573 731.24 573 731.25 571.69 733.51 573.86 734.77 574.44 733.76 574.8 734.39"/><rect class="cls-2" x="587.86" y="719.86" width="1.25" height="6.26" transform="translate(-280.94 386.63) rotate(-29.71)"/><polygon class="cls-2" points="578.77 724.92 576.59 726.16 579.49 731.24 579.5 731.26 576.58 736.33 578.75 737.58 581.88 732.16 580.32 731.26 580.3 731.25 581.87 730.36 578.77 724.92"/><rect class="cls-2" x="582.88" y="722.34" width="2.51" height="6.26" transform="translate(-282.65 384.58) rotate(-29.69)"/><polygon class="cls-2" points="269.56 731.17 269.58 731.18 268.01 732.06 271.08 737.52 273.26 736.29 270.39 731.2 270.38 731.17 273.34 726.12 271.18 724.86 268.01 730.26 269.56 731.17"/><rect class="cls-2" x="262.68" y="724.1" width="6.26" height="2.5" transform="translate(-494.51 588.61) rotate(-59.68)"/><rect class="cls-2" x="258.36" y="722.2" width="6.26" height="1.24" transform="translate(-494.16 581.98) rotate(-59.55)"/><rect class="cls-2" x="264.47" y="733.81" width="2.51" height="6.26" transform="translate(-327.47 225.26) rotate(-29.39)"/><rect class="cls-2" x="260.73" y="736.27" width="1.25" height="6.26" transform="translate(-328.9 223.05) rotate(-29.35)"/><polygon class="cls-2" points="275.1 728.07 272.92 729.3 273.99 731.2 273.99 731.21 272.88 733.11 275.04 734.38 275.41 733.73 275.43 733.76 275.99 734.76 278.17 733.53 276.9 731.27 276.88 731.23 276.88 731.23 278.2 728.97 276.04 727.7 275.46 728.7 275.1 728.07"/><rect class="cls-2" x="339.11" y="863.22" width="2.5" height="6.26" transform="translate(-394.89 295.54) rotate(-30.73)"/><rect class="cls-2" x="335.44" y="865.78" width="1.24" height="6.26" transform="translate(-396.04 292.74) rotate(-30.65)"/><polygon class="cls-2" points="347.67 865.17 344.69 860.14 342.53 861.42 345.73 866.8 347.27 865.89 347.29 865.88 347.3 867.68 353.56 867.64 353.55 865.13 347.7 865.17 347.67 865.17"/><polygon class="cls-2" points="350.87 859.52 350.87 859.51 349.53 857.26 347.38 858.54 347.97 859.54 347.25 859.54 347.26 862.05 349.45 862.03 349.45 862.03 350.57 863.93 352.73 862.65 352.35 862.01 352.38 862.01 353.52 862 353.51 859.5 350.92 859.52 350.87 859.52"/><rect class="cls-2" x="347.36" y="876.43" width="6.26" height="1.25" transform="translate(-5.77 2.33) rotate(-0.38)"/><rect class="cls-2" x="347.33" y="870.79" width="6.26" height="2.51" transform="translate(-6.32 2.57) rotate(-0.42)"/><rect class="cls-2" x="332.64" y="593.18" width="6.26" height="1.24" transform="translate(-346.35 586.65) rotate(-59.91)"/><polygon class="cls-2" points="347.02 596.7 345.47 595.8 342.33 601.21 344.5 602.47 347.43 597.4 347.46 597.4 353.3 597.38 353.29 594.88 347.03 594.9 347.04 596.71 347.02 596.7"/><polygon class="cls-2" points="349.24 600.53 347.05 600.54 347.06 603.04 347.79 603.04 347.21 604.04 349.38 605.3 350.69 603.03 350.69 603.03 350.74 603.03 353.32 603.02 353.31 600.51 352.17 600.52 352.14 600.52 352.51 599.88 350.35 598.62 349.24 600.52 349.24 600.53"/><rect class="cls-2" x="336.97" y="595.06" width="6.26" height="2.5" transform="translate(-346.36 591.77) rotate(-59.92)"/><rect class="cls-2" x="346.99" y="584.87" width="6.26" height="1.25" transform="translate(-2.14 1.29) rotate(-0.21)"/><rect class="cls-2" x="347.01" y="589.25" width="6.26" height="2.51" transform="translate(-2.49 1.48) rotate(-0.24)"/><rect class="cls-2" x="508.18" y="593.04" width="2.5" height="6.26" transform="matrix(0.86, -0.51, 0.51, 0.86, -232.99, 343.67)"/><rect class="cls-2" x="513.11" y="590.48" width="1.24" height="6.26" transform="translate(-230.86 344.85) rotate(-30.65)"/><polygon class="cls-2" points="502.52 596.63 502.5 596.64 502.49 594.84 496.23 594.88 496.25 597.39 502.09 597.35 502.12 597.35 505.11 602.38 507.26 601.1 504.06 595.72 502.52 596.63"/><polygon class="cls-2" points="502.53 600.48 500.35 600.49 500.34 600.49 499.22 598.6 497.06 599.88 497.44 600.51 497.41 600.51 496.27 600.52 496.29 603.02 498.87 603.01 498.92 603.01 498.92 603.01 500.26 605.26 502.42 603.98 501.83 602.99 502.55 602.98 502.53 600.48"/><rect class="cls-2" x="496.2" y="589.23" width="6.26" height="2.51" transform="translate(-4.13 3.51) rotate(-0.4)"/><rect class="cls-2" x="496.17" y="584.84" width="6.26" height="1.25" transform="translate(-4.82 4.14) rotate(-0.47)"/><rect class="cls-2" x="506.3" y="865.03" width="6.26" height="2.5" transform="translate(-495.52 872.52) rotate(-59.9)"/><rect class="cls-2" x="510.63" y="868.17" width="6.26" height="1.24" transform="translate(-495.53 877.78) rotate(-59.91)"/><polygon class="cls-2" points="500.16 857.29 498.85 859.56 498.85 859.56 498.8 859.56 496.21 859.57 496.22 862.08 497.37 862.07 497.39 862.07 497.02 862.71 499.19 863.97 500.29 862.07 500.3 862.06 502.48 862.05 502.47 859.55 501.75 859.55 502.33 858.55 500.16 857.29"/><polygon class="cls-2" points="502.08 865.19 496.23 865.21 496.24 867.71 502.51 867.69 502.5 865.88 502.51 865.89 504.07 866.79 507.21 861.38 505.04 860.12 502.11 865.19 502.08 865.19"/><rect class="cls-2" x="496.28" y="876.47" width="6.26" height="1.25" transform="translate(-3.15 1.8) rotate(-0.21)"/><rect class="cls-2" x="496.26" y="870.83" width="6.26" height="2.51" transform="translate(-3.68 2.12) rotate(-0.24)"/><polygon class="cls-1" points="340.34 291.94 509.43 291.94 587.44 427.06 590.57 432.49 593.97 438.38 590.54 444.31 587.41 449.73 509.42 584.81 340.33 584.81 255.79 438.37 340.34 291.94"/><path class="cls-2" d="M340.34,291.94l-4.7,8.13,1.36.78,4.69-8.13-1.33-.77h0Zm-9.4,16.27-4.69,8.13,1.35.78,4.7-8.13-1.36-.78Zm-9.39,16.27-4.7,8.13,1.36.78,4.7-8.13-1.36-.78Zm-9.39,16.27-3.68,6.37h0l-.08.15h0l-.9,1.56,1.36.78,4.69-8.13-1.35-.78ZM302.76,357l-3.27,5.67h0v0h0v0c-.78,1.34-1.38,2.39-1.38,2.39l1.35.78,4.7-8.13-1.36-.78Zm-9.39,16.27-2.84,4.92h0v0h0v0h0c-1,1.68-1.8,3.12-1.8,3.12l1.36.78,4.69-8.13-1.35-.78ZM284,389.56l-2.48,4.28v0h0l0,0h0v0h0v0h0l0,0h0l-2.13,3.68,1.35.79,4.7-8.14-1.35-.78Zm-9.4,16.27-4.7,8.13,1.36.79,4.7-8.14-1.36-.78Zm-9.39,16.27-2.29,4h0l0,0h0v0h0l0,0h0l0,.06h0l-2.28,3.94,1.36.79,4.69-8.14-1.35-.78Zm-8,15.49-1.35.78h0l4.7,8.13,1.35-.78-4.69-8.13Zm9.39,16.27-1.36.78.37.64h0l0,.05h0l0,0h0v0h0l4.24,7.33,1.36-.78-4.7-8.13Zm9.39,16.27-1.35.78,4.69,8.13,1.36-.78-4.7-8.13Zm9.4,16.27-1.36.78,1.53,2.65h0l0,0h0v0h0l3.14,5.42,1.35-.78-4.69-8.13Zm9.39,16.27-1.36.78h0v0h0v0h0v0h0v0h0v0h0l0,0h0l0,0h0v0h0l0,0h0l0,0h0v0h0v0h0l0,0h0v0h0l0,0h0v0h0l0,0h0l0,0h0l0,0h0v0h0l0,0,0,0h0l0,.06h0v0h0l0,.05h0l0,.06h0v0h0l.07.12h0l0,0h0l0,0h0l.13.23h0l.16.27h0l0,.06h0l0,.09h0l3.48,6,1.36-.78-4.7-8.13Zm9.39,16.27-1.35.78,4.69,8.13,1.36-.78-4.7-8.13Zm9.4,16.27-1.36.78,4.7,8.14,1.35-.79-4.69-8.13Zm9.39,16.27-1.36.78,3.88,6.72h0l0,.07h0v0h0l.75,1.31,1.35-.79-4.69-8.13Zm9.39,16.27-1.35.78,1.94,3.37h0l0,0v0h0v0h0l.09.17h0c1.25,2.15,2.57,4.45,2.57,4.45l1.36-.79-4.7-8.13Zm17.43,15.49h-9.39v1.56h0v0h9.39v-1.57Zm-9.39,1.56h0Zm18.78-1.56v1.57h9.4v-1.57Zm18.79,0v1.57h9.39v-1.57Zm18.79,0v1.57h9.39v-1.57Zm28.18,0h-9.4v1.57h9.4v-1.57Zm9.39,0v1.57h9.39v-1.57Zm18.79,0v1.57h9.39v-1.57Zm18.78,0v1.57h9.4v-1.57Zm28.19,0h-9.4v1.57H500v-1.57Zm12.74-7.34L508.07,584l1.34.77h0l-1.34-.77,1.34.77h0l.2-.35h0l.52-.91h0l0,0h0l.06-.11h0l.09-.15h0l.18-.31h0c.06-.1.13-.21.19-.33h0l0-.09h0l0-.08h0l0,0h0v0h0v0h0v0l0,0h0v0h0v0h0v0h0l0,0h0l0,0h0l0-.05h0v0h0v0h0l0,0h0l0,0h0l0,0h0v0h0l0,0h0l.05-.09h0l.06-.11h0v0h0l.06-.09h0l.87-1.51h0l1.76-3-1.35-.79Zm9.39-16.27-4.7,8.14,1.36.78,4.7-8.13-1.36-.79Zm9.39-16.27-4.69,8.14,1.35.78s1.65-2.86,3-5.18h0v0h0v0h0l1.62-2.81-1.36-.79Zm9.4-16.27-4.7,8.14,1.36.78,2.23-3.87h0l0,0v0h0l0,0h0l2.38-4.13-1.35-.79Zm9.39-16.27L545.64,519l1.35.78,4.7-8.13-1.36-.79Zm9.4-16.27-4.7,8.14,1.36.78,4.69-8.13-1.35-.79Zm9.39-16.27-4.7,8.14,1.36.78.2-.35h0l.23-.4h0l.14-.24h0l.07-.13h0l0,0h0l0,0h0l0,0h0v0h0v0h0v0h0v0h0v0h0v0h0l0-.06h.07v0h0v0h0v0h0l3.64-6.3-1.36-.79ZM578.51,462l-4.69,8.14,1.35.78,4.7-8.13-1.36-.79Zm9.4-16.27-1.85,3.2-2.85,4.94,1.36.78,2.85-4.93.07-.14h0l0-.07h0l0-.08v0h0v0h0l0,0h0v0h0l1.6-2.77-1.35-.79Zm1.37-15.48-1.35.78,1.28,2.23,3.4,5.89,1.34-.77h0l-1.34.77,1.34-.77h0l-.15-.25h0l-.38-.67h0l-.55-.94h0l-.62-1.08h0l-.63-1.08h0c-.19-.35-.38-.67-.54-.94h0c-.16-.28-.29-.51-.39-.67h0l-.14-.26h0l-1.29-2.22ZM579.89,414l-1.36.79,4.7,8.13,1.36-.78-2.35-4.06h0v0h0v0h0v0h0l0,0h0l0,0h0l0,0h0l-.06-.09v0h0v0h0l0-.05h0l0,0h0L579.89,414Zm-9.39-16.27-1.36.79,4.7,8.13,1.35-.78s-1.83-3.18-3.21-5.56h0l0,0h0l0,0h0l0-.09h0l0-.08h0l-.05-.08h0l0,0h0v0h0l-1.2-2.08Zm-9.4-16.27-1.35.79,4.69,8.13,1.36-.78-4.7-8.14Zm-9.39-16.27-1.36.79,4.7,8.13,1.36-.78-4.7-8.14Zm-9.39-16.27-1.36.79,4.7,8.13L547,357l-4.69-8.14Zm-9.4-16.27-1.35.79,4.69,8.13,1.36-.78-3.88-6.72h0l0-.07h0l0,0h0l0,0v0h0l0,0h0v0h0v0h0v0h0l0-.09h0l0-.05h0v0h0l-.48-.83Zm-9.39-16.27-1.36.79,4.7,8.13,1.35-.78-4.69-8.13h0Zm-9.4-16.27-1.35.79,4.7,8.13,1.35-.78-3.66-6.34h0v0h0l0,0v0h0l0,0h0v0h0v0h0v0h0l0,0h0l0,0h0l0,0h0l0,0h0l0-.07h0l0-.07h0l-.74-1.27Zm-14.07-8.15v1.56h9.36V292h0v0h-9.36Zm-18.79,0v1.56h9.39v-1.56h-9.39Zm-18.79,0v1.56h9.4v-1.56h-9.4Zm-18.79,0v1.56h9.4v-1.56h-9.4Zm-18.78,0v1.56h9.39v-1.56Zm-18.79,0v1.56h9.39v-1.56Zm-18.79,0v1.56h9.4v-1.56Zm-18.78,0v1.56h9.39v-1.56Zm-18.79,0v1.56h9.39v-1.56Z"/><path class="cls-3" d="M490.55,312H359.21a12.62,12.62,0,0,0-10.93,6.31L282.61,432.06a12.64,12.64,0,0,0,0,12.62l65.67,113.75a12.63,12.63,0,0,0,10.93,6.3H490.55a12.6,12.6,0,0,0,10.92-6.3l65.68-113.75a12.62,12.62,0,0,0,0-12.61L501.48,318.32A12.64,12.64,0,0,0,490.55,312Z"/><rect class="cls-2" x="585.31" y="446.08" width="6.26" height="1.24" transform="translate(-92.62 732.99) rotate(-60)"/><rect class="cls-2" x="580.98" y="442.95" width="6.26" height="2.5" transform="translate(-92.55 728.16) rotate(-60.02)"/><polygon class="cls-2" points="574.8 441.53 576.98 440.29 575.89 438.39 575.9 438.39 577 436.48 574.83 435.23 574.46 435.87 574.44 435.84 573.88 434.85 571.7 436.09 572.98 438.34 573 438.38 573 438.38 571.69 440.65 573.86 441.9 574.44 440.9 574.8 441.53"/><rect class="cls-2" x="587.86" y="427" width="1.25" height="6.26" transform="translate(-135.81 348.15) rotate(-29.71)"/><polygon class="cls-2" points="578.77 432.06 576.59 433.3 579.49 438.38 579.5 438.4 576.58 443.47 578.75 444.72 581.88 439.3 580.32 438.4 580.3 438.39 581.87 437.5 578.77 432.06"/><rect class="cls-2" x="582.88" y="429.48" width="2.51" height="6.26" transform="translate(-137.59 346.13) rotate(-29.69)"/><polygon class="cls-2" points="269.56 438.31 269.58 438.32 268.01 439.2 271.08 444.66 273.26 443.43 270.39 438.34 270.38 438.31 273.34 433.26 271.18 432 268.01 437.4 269.56 438.31"/><rect class="cls-2" x="262.68" y="431.23" width="6.26" height="2.5" transform="translate(-241.71 443.6) rotate(-59.68)"/><rect class="cls-2" x="258.36" y="429.34" width="6.26" height="1.24" transform="translate(-241.69 437.52) rotate(-59.55)"/><rect class="cls-2" x="264.47" y="440.95" width="2.51" height="6.26" transform="translate(-183.74 187.57) rotate(-29.39)"/><rect class="cls-2" x="260.73" y="443.41" width="1.25" height="6.26" transform="translate(-185.34 185.45) rotate(-29.35)"/><polygon class="cls-2" points="275.1 435.21 272.92 436.44 273.99 438.34 273.99 438.35 272.88 440.25 275.04 441.51 275.41 440.87 275.43 440.9 275.99 441.89 278.17 440.67 276.9 438.41 276.88 438.37 276.88 438.37 278.2 436.11 276.04 434.84 275.46 435.84 275.1 435.21"/><rect class="cls-2" x="339.11" y="570.36" width="2.5" height="6.26" transform="translate(-245.25 254.43) rotate(-30.73)"/><rect class="cls-2" x="335.44" y="572.92" width="1.24" height="6.26" transform="translate(-246.73 251.82) rotate(-30.65)"/><polygon class="cls-2" points="347.67 572.31 344.69 567.28 342.53 568.56 345.73 573.94 347.27 573.03 347.29 573.02 347.3 574.82 353.56 574.78 353.55 572.27 347.7 572.31 347.67 572.31"/><polygon class="cls-2" points="350.87 566.65 350.87 566.65 349.53 564.4 347.38 565.68 347.97 566.67 347.25 566.68 347.26 569.18 349.45 569.17 349.45 569.17 350.57 571.07 352.73 569.79 352.35 569.15 352.38 569.15 353.52 569.14 353.51 566.64 350.92 566.65 350.87 566.65"/><rect class="cls-2" x="347.36" y="583.57" width="6.26" height="1.25" transform="translate(-3.84 2.32) rotate(-0.38)"/><rect class="cls-2" x="347.33" y="577.93" width="6.26" height="2.51" transform="translate(-4.19 2.56) rotate(-0.42)"/><rect class="cls-2" x="332.64" y="300.32" width="6.26" height="1.24" transform="translate(-92.95 440.6) rotate(-59.91)"/><polygon class="cls-2" points="347.02 303.83 345.47 302.94 342.33 308.35 344.5 309.61 347.43 304.54 347.46 304.54 353.3 304.52 353.29 302.02 347.03 302.04 347.04 303.84 347.02 303.83"/><polygon class="cls-2" points="349.24 307.67 347.05 307.68 347.06 310.18 347.79 310.18 347.21 311.18 349.38 312.44 350.69 310.17 350.69 310.17 350.74 310.17 353.32 310.15 353.31 307.65 352.17 307.65 352.14 307.65 352.51 307.01 350.35 305.76 349.24 307.66 349.24 307.67"/><rect class="cls-2" x="336.97" y="302.19" width="6.26" height="2.5" transform="translate(-92.93 445.68) rotate(-59.92)"/><rect class="cls-2" x="346.99" y="292.01" width="6.26" height="1.25" transform="translate(-1.07 1.28) rotate(-0.21)"/><rect class="cls-2" x="347.01" y="296.39" width="6.26" height="2.51" transform="translate(-1.25 1.48) rotate(-0.24)"/><rect class="cls-2" x="508.18" y="300.18" width="2.5" height="6.26" transform="matrix(0.86, -0.51, 0.51, 0.86, -83.46, 302.62)"/><rect class="cls-2" x="513.11" y="297.62" width="1.24" height="6.26" transform="translate(-81.55 303.93) rotate(-30.65)"/><polygon class="cls-2" points="502.52 303.77 502.5 303.78 502.49 301.98 496.23 302.02 496.25 304.53 502.09 304.49 502.12 304.49 505.11 309.52 507.26 308.24 504.06 302.86 502.52 303.77"/><polygon class="cls-2" points="502.53 307.62 500.35 307.63 500.34 307.63 499.22 305.73 497.06 307.01 497.44 307.65 497.41 307.65 496.27 307.66 496.29 310.16 498.87 310.14 498.92 310.14 498.92 310.15 500.26 312.4 502.42 311.12 501.83 310.12 502.55 310.12 502.53 307.62"/><rect class="cls-2" x="496.2" y="296.36" width="6.26" height="2.51" transform="translate(-2.07 3.51) rotate(-0.4)"/><rect class="cls-2" x="496.17" y="291.98" width="6.26" height="1.25" transform="translate(-2.4 4.13) rotate(-0.47)"/><rect class="cls-2" x="506.3" y="572.17" width="6.26" height="2.5" transform="translate(-242.16 726.54) rotate(-59.9)"/><rect class="cls-2" x="510.63" y="575.31" width="6.26" height="1.24" transform="translate(-242.13 731.74) rotate(-59.91)"/><polygon class="cls-2" points="500.16 564.43 498.85 566.7 498.85 566.7 498.8 566.7 496.21 566.71 496.22 569.22 497.37 569.21 497.39 569.21 497.02 569.85 499.19 571.11 500.29 569.2 500.3 569.2 502.48 569.19 502.47 566.69 501.75 566.69 502.33 565.69 500.16 564.43"/><polygon class="cls-2" points="502.08 572.32 496.23 572.35 496.24 574.85 502.51 574.83 502.5 573.02 502.51 573.03 504.07 573.93 507.21 568.51 505.04 567.26 502.11 572.32 502.08 572.32"/><rect class="cls-2" x="496.28" y="583.61" width="6.26" height="1.25" transform="translate(-2.1 1.8) rotate(-0.21)"/><rect class="cls-2" x="496.26" y="577.97" width="6.26" height="2.51" transform="translate(-2.44 2.11) rotate(-0.24)"/><polygon class="cls-1" points="84.55 145.47 253.63 145.47 331.65 280.59 334.78 286.02 338.18 291.91 334.75 297.84 331.62 303.26 253.63 438.34 84.54 438.34 0 291.9 84.55 145.47"/><path class="cls-2" d="M84.55,145.47l-4.7,8.13,1.35.79,4.7-8.14-1.33-.77h0Zm-9.4,16.27-4.69,8.13,1.35.79,4.7-8.14-1.36-.78ZM65.76,178l-4.7,8.13,1.36.79,4.69-8.14L65.76,178Zm-9.4,16.27-3.68,6.37v0h0l-.09.15h0l-.9,1.56,1.35.79,4.7-8.14-1.36-.78ZM47,210.55l-3.28,5.68h0v0h0v0l-1.39,2.39,1.36.79,4.7-8.14L47,210.55Zm-9.39,16.27-2.85,4.92h0v0h0v0h0c-1,1.68-1.8,3.12-1.8,3.12l1.36.79,4.69-8.14-1.35-.78Zm-9.4,16.27-2.47,4.28v0h0l0,0h0v0h0l0,0h0l0,0h0l-2.12,3.68,1.35.79,4.7-8.14-1.36-.78Zm-9.39,16.27-4.7,8.13,1.36.79,4.7-8.14-1.36-.78ZM9.4,275.63l-2.3,4h0l0,0h0v0H7l0,0H7l0,.06H7L4.7,283.76l1.35.79,4.7-8.14-1.35-.78Zm-8,15.49L0,291.9H0L4.69,300l1.36-.78-4.69-8.13Zm9.39,16.27-1.36.78.37.64h0l0,.05h0v0h0l0,0h0v0h0l4.24,7.33,1.35-.78-4.69-8.13Zm9.39,16.27-1.36.78,4.7,8.13,1.36-.78-4.7-8.13Zm9.39,16.27-1.35.78,1.53,2.65h0v0h0v0h0l3.13,5.42,1.36-.78-4.7-8.13Zm9.4,16.27-1.36.78h0v0h0v0h0v0h0v0h0v0h0v0h0l0,0h0v0h0l0,0h0l0,0h0v0h0v0h0v0h0l0,0h0v0h0v0h0l0,0h0v0h0v0h0v0h0v0h0v0h0l0,0,0,0h0l0,.06h0v0h0l0,0h0l0,.06h0v0h0l.07.12h0l0,0h0l0,0h0l.13.23h0l.16.27h0l0,.06h0l.05.08h0l3.48,6,1.35-.79-4.69-8.13Zm9.39,16.27-1.36.78,4.7,8.14L53,380.6l-4.7-8.13Zm9.39,16.27-1.35.78,4.69,8.14,1.36-.79-4.7-8.13ZM67.11,405l-1.36.78,3.88,6.72h0l0,.07h0v0h0l.75,1.3,1.35-.79L67.11,405Zm9.39,16.27-1.36.78,2,3.37h0v0h0l0,0h0l.09.17h0c1.25,2.15,2.57,4.45,2.57,4.45l1.36-.79-4.7-8.13Zm17.43,15.49H84.54v1.56h0v0h9.39v-1.57Zm-9.39,1.56h0Zm18.78-1.56v1.57h9.39v-1.57Zm18.79,0v1.57h9.39v-1.57Zm18.78,0v1.57h9.4v-1.57Zm28.18,0h-9.39v1.57h9.39v-1.57Zm9.4,0v1.57h9.39v-1.57Zm18.79,0v1.57h9.39v-1.57Zm18.78,0v1.57h9.4v-1.56Zm28.18,0h-9.39v1.56h9.39v-1.56ZM257,429.44l-4.69,8.12,1.34.77h0l-1.34-.77,1.34.77h0l.2-.35h0l.53-.91h0v0h0l.06-.1h0a1.09,1.09,0,0,0,.08-.15h0l.18-.31h0c.06-.1.13-.21.19-.33h0l0-.08h0l0-.08h0l0,0h0v0h0v0h0l0-.05h0l0,0h0v0h0v0h0l0,0h0v0h0l0,0h0l0,0h0v0h0v0h0l0,0h0l0,0h0l0,0h0v0h0l0,0v0h0l.06-.09h0l.06-.11h0v0h0l.05-.09h0l.87-1.51h0l1.76-3-1.35-.78Zm9.39-16.27-4.7,8.13,1.36.78,4.7-8.13-1.36-.78Zm9.39-16.27L271.06,405l1.35.78,3-5.18h0v0h0v0h0l1.62-2.81-1.36-.78Zm9.4-16.27-4.7,8.13,1.36.78,2.23-3.87h0l0,0v0h0l0,0h0l2.38-4.13-1.35-.78Zm9.39-16.27-4.7,8.13,1.36.78,4.7-8.13-1.36-.78Zm9.39-16.28-4.69,8.14,1.35.78,4.7-8.13-1.36-.79Zm9.4-16.27-4.7,8.14,1.36.78.2-.35h0l.23-.4h0l.14-.24h0l.08-.12h0l0,0h0l0,0h0l0,0h0v0h0l0,0h0v0h.05v0h0v0h0l0-.06h0v0h0v0h0l0,0h0v0h0l3.63-6.3-1.35-.79Zm9.39-16.27-4.7,8.14,1.36.78,4.7-8.13-1.36-.79Zm9.4-16.27-1.85,3.21-2.85,4.93,1.35.78,2.85-4.93.08-.14h0l0-.07h0l.05-.08v0h0v0h0v0h0v0h0l1.6-2.77-1.35-.79Zm1.37-15.48-1.36.78,1.29,2.23,3.4,5.89,1.34-.77h0l-1.34.77,1.34-.77h0l-.15-.26h0l-.38-.66h0l-.55-.95h0l-.62-1.08h0l-.63-1.08h0l-.54-.94h0c-.16-.28-.29-.51-.39-.67h0l-.14-.25h0l-1.29-2.23Zm-9.39-16.27-1.36.78,4.7,8.13,1.35-.78-2.34-4.06h0v0h0v0h0v0h0v0h0l0-.05h0l0,0h0l-.05-.09v0h0v0l0,0h0l0,0h0l0,0h0l-2.08-3.6Zm-9.4-16.27-1.35.78,4.7,8.13,1.35-.78-3.21-5.56h0l0,0h0l0-.05h0l-.05-.08h0l0-.08h0l-.05-.08v0h0l0,0h0v0h0l-1.2-2.07ZM305.31,235l-1.36.78,4.7,8.13,1.36-.78-4.7-8.13Zm-9.39-16.27-1.36.78,4.7,8.13,1.35-.78-4.69-8.13Zm-9.4-16.27-1.35.78,4.69,8.13,1.36-.78-4.7-8.13Zm-9.39-16.27-1.36.78,4.7,8.13,1.36-.78L278,187.58h0l0-.07h0l0,0h0v0h0l0,0h0v0h0v0l0,0h0v0h0v0h0l-.05-.09h0l0,0h0v0h0l-.48-.82Zm-9.39-16.27-1.36.78,4.7,8.13,1.35-.78-4.69-8.13Zm-9.4-16.27-1.35.78,4.69,8.13,1.36-.78-3.66-6.34h0v0h0l0,0v0h0l0,0h0v0h0v0h0l0,0h0l0,0h0l0,0h0l0-.07h0l0-.07h0c-.43-.76-.73-1.26-.73-1.26Zm-14.08-8.16V147h9.37V145.5h0v0h-9.37Zm-18.78,0V147h9.39v-1.56h-9.39Zm-18.79,0V147h9.39v-1.56h-9.39Zm-18.79,0V147h9.4v-1.56h-9.4Zm-18.78,0V147h9.39v-1.56Zm-18.79,0V147h9.39v-1.56Zm-18.79,0V147h9.39v-1.56Zm-18.79,0V147h9.4v-1.56Zm-18.78,0V147h9.39v-1.56Z"/><path class="cls-3" d="M234.76,165.54H103.42a12.64,12.64,0,0,0-10.93,6.31L26.82,285.6a12.62,12.62,0,0,0,0,12.61L92.49,412a12.61,12.61,0,0,0,10.92,6.3H234.76A12.62,12.62,0,0,0,245.68,412l65.68-113.75a12.62,12.62,0,0,0,0-12.61L245.68,171.85A12.61,12.61,0,0,0,234.76,165.54Z"/><rect class="cls-2" x="329.52" y="299.61" width="6.26" height="1.24" transform="translate(-93.68 438.22) rotate(-60)"/><rect class="cls-2" x="325.18" y="296.48" width="6.26" height="2.5" transform="translate(-93.64 433.33) rotate(-60.02)"/><polygon class="cls-2" points="319.01 295.06 321.18 293.82 320.1 291.92 320.1 291.92 321.2 290.01 319.04 288.76 318.67 289.4 318.65 289.37 318.08 288.38 315.91 289.62 317.19 291.87 317.21 291.91 317.21 291.92 315.9 294.18 318.07 295.44 318.65 294.43 319.01 295.06"/><rect class="cls-2" x="332.07" y="280.53" width="1.25" height="6.26" transform="translate(-96.84 202.14) rotate(-29.71)"/><polygon class="cls-2" points="322.98 285.59 320.8 286.83 323.7 291.91 323.71 291.93 320.78 297 322.95 298.25 326.08 292.83 324.53 291.93 324.51 291.92 326.08 291.03 322.98 285.59"/><rect class="cls-2" x="327.09" y="283.01" width="2.51" height="6.26" transform="translate(-98.62 200.2) rotate(-29.69)"/><polygon class="cls-2" points="13.77 291.84 13.79 291.85 12.22 292.73 15.29 298.19 17.47 296.96 14.6 291.87 14.59 291.85 17.55 286.79 15.38 285.53 12.22 290.93 13.77 291.84"/><rect class="cls-2" x="6.89" y="284.77" width="6.26" height="2.5" transform="translate(-241.93 150.27) rotate(-59.68)"/><rect class="cls-2" x="2.57" y="282.87" width="6.26" height="1.24" transform="translate(-241.59 144.75) rotate(-59.55)"/><rect class="cls-2" x="8.68" y="294.48" width="2.51" height="6.26" transform="translate(-144.78 43.18) rotate(-29.39)"/><rect class="cls-2" x="4.94" y="296.94" width="1.25" height="6.26" transform="translate(-146.38 41.25) rotate(-29.35)"/><polygon class="cls-2" points="19.31 288.74 17.13 289.97 18.2 291.87 18.2 291.88 17.09 293.78 19.25 295.04 19.62 294.4 19.64 294.43 20.2 295.43 22.38 294.2 21.11 291.94 21.09 291.9 21.09 291.9 22.41 289.64 20.25 288.37 19.66 289.37 19.31 288.74"/><rect class="cls-2" x="83.32" y="423.89" width="2.5" height="6.26" transform="translate(-206.32 103.16) rotate(-30.73)"/><rect class="cls-2" x="79.64" y="426.45" width="1.24" height="6.26" transform="translate(-207.8 100.94) rotate(-30.65)"/><polygon class="cls-2" points="91.88 425.85 88.89 420.81 86.74 422.09 89.94 427.47 91.48 426.56 91.5 426.55 91.51 428.35 97.77 428.31 97.75 425.8 91.91 425.84 91.88 425.85"/><polygon class="cls-2" points="95.08 420.19 95.08 420.18 93.74 417.93 91.58 419.21 92.17 420.21 91.45 420.21 91.47 422.72 93.66 422.7 93.66 422.7 94.78 424.6 96.94 423.32 96.56 422.68 96.59 422.68 97.73 422.67 97.71 420.17 95.13 420.19 95.08 420.19"/><rect class="cls-2" x="91.57" y="437.1" width="6.26" height="1.25" transform="translate(-2.88 0.63) rotate(-0.38)"/><rect class="cls-2" x="91.54" y="431.46" width="6.26" height="2.51" transform="translate(-3.14 0.7) rotate(-0.42)"/><rect class="cls-2" x="76.85" y="153.85" width="6.26" height="1.24" transform="translate(-93.77 146.24) rotate(-59.91)"/><polygon class="cls-2" points="91.23 157.37 89.68 156.47 86.54 161.88 88.71 163.14 91.64 158.07 91.67 158.07 97.51 158.05 97.5 155.55 91.24 155.57 91.25 157.38 91.23 157.37"/><polygon class="cls-2" points="93.45 161.2 91.26 161.21 91.27 163.71 91.99 163.71 91.41 164.71 93.58 165.97 94.9 163.7 94.9 163.7 94.95 163.7 97.53 163.69 97.52 161.18 96.38 161.19 96.35 161.19 96.72 160.55 94.55 159.29 93.45 161.19 93.45 161.2"/><rect class="cls-2" x="81.18" y="155.72" width="6.26" height="2.5" transform="translate(-93.78 151.27) rotate(-59.92)"/><rect class="cls-2" x="91.2" y="145.54" width="6.26" height="1.25" transform="translate(-0.53 0.35) rotate(-0.21)"/><rect class="cls-2" x="91.22" y="149.92" width="6.26" height="2.51" transform="translate(-0.64 0.4) rotate(-0.24)"/><rect class="cls-2" x="252.39" y="153.71" width="2.5" height="6.26" transform="matrix(0.86, -0.51, 0.51, 0.86, -44.53, 151.49)"/><rect class="cls-2" x="257.32" y="151.15" width="1.24" height="6.26" transform="translate(-42.62 153.06) rotate(-30.65)"/><polygon class="cls-2" points="246.73 157.31 246.71 157.31 246.7 155.51 240.44 155.55 240.46 158.06 246.3 158.02 246.33 158.02 249.31 163.05 251.47 161.77 248.27 156.39 246.73 157.31"/><polygon class="cls-2" points="246.74 161.15 244.55 161.16 244.55 161.16 243.43 159.26 241.27 160.54 241.65 161.18 241.62 161.18 240.48 161.19 240.5 163.69 243.08 163.68 243.13 163.68 243.13 163.68 244.47 165.93 246.63 164.65 246.03 163.66 246.75 163.65 246.74 161.15"/><rect class="cls-2" x="240.41" y="149.9" width="6.26" height="2.51" transform="translate(-1.05 1.71) rotate(-0.4)"/><rect class="cls-2" x="240.37" y="145.51" width="6.26" height="1.25" transform="translate(-1.2 2.02) rotate(-0.47)"/><rect class="cls-2" x="250.51" y="425.7" width="6.26" height="2.5" transform="translate(-242.94 432.24) rotate(-59.9)"/><rect class="cls-2" x="254.84" y="428.84" width="6.26" height="1.24" transform="translate(-242.95 437.37) rotate(-59.91)"/><polygon class="cls-2" points="244.37 417.96 243.06 420.23 243.06 420.23 243.01 420.23 240.42 420.24 240.43 422.75 241.57 422.74 241.6 422.74 241.23 423.38 243.4 424.64 244.5 422.74 244.5 422.73 246.69 422.72 246.68 420.22 245.96 420.22 246.54 419.22 244.37 417.96"/><polygon class="cls-2" points="246.29 425.86 240.44 425.88 240.45 428.38 246.72 428.36 246.71 426.56 246.72 426.56 248.28 427.46 251.41 422.05 249.25 420.79 246.31 425.86 246.29 425.86"/><rect class="cls-2" x="240.49" y="437.14" width="6.26" height="1.25" transform="translate(-1.57 0.88) rotate(-0.21)"/><rect class="cls-2" x="240.47" y="431.5" width="6.26" height="2.51" transform="translate(-1.83 1.03) rotate(-0.24)"/><polygon class="cls-1" points="595.64 145.47 764.72 145.47 842.74 280.59 845.87 286.02 849.27 291.91 845.84 297.84 842.71 303.26 764.72 438.34 595.63 438.34 511.09 291.9 595.64 145.47"/><path class="cls-2" d="M595.64,145.47l-4.7,8.13,1.36.79,4.69-8.14-1.33-.77h0Zm-9.4,16.27-4.69,8.13,1.35.79,4.7-8.14-1.36-.78ZM576.85,178l-4.7,8.13,1.36.79,4.69-8.14-1.35-.78Zm-9.39,16.27-3.68,6.37v0h0l-.08.15h0l-.9,1.56,1.35.79,4.7-8.14-1.35-.78Zm-9.4,16.27-3.28,5.68h0v0h0v0l-1.39,2.39,1.36.79,4.7-8.14-1.36-.78Zm-9.39,16.27-2.85,4.92h0v0h0v0h0c-1,1.68-1.8,3.12-1.8,3.12l1.36.79L550,227.6l-1.35-.78Zm-9.4,16.27-2.47,4.28v0h0l0,0h0v0h0l0,0h0l0,0h0l-2.12,3.68,1.35.79,4.7-8.14-1.36-.78Zm-9.39,16.27-4.7,8.13,1.36.79,4.7-8.14-1.36-.78Zm-9.39,16.27-2.3,4h0l0,0h0v0h0l0,0h0l0,.06h0l-2.27,3.94,1.36.79,4.69-8.14-1.35-.78Zm-8,15.49-1.36.78h0l4.7,8.13,1.35-.78-4.69-8.13Zm9.39,16.27-1.36.78.37.64h0l0,.05h0v0h0l0,0h0v0h0l4.24,7.33,1.35-.78-4.69-8.13Zm9.39,16.27-1.35.78,4.69,8.13,1.36-.78-4.7-8.13Zm9.39,16.27-1.35.78,1.53,2.65h0v0h0v0h0l3.13,5.42,1.36-.78-4.7-8.13ZM550,356.2l-1.36.78h0v0h0v0h0v0h0v0h0v0h0l0,0h0l0,0h0v0h0l0,0h0l0,0h0v0h0v0h0v0h0v0h0v0h0v0h0l0,0h0v0h0v0h0v0h0v0h0v0h0l0,0,0,0h0l0,.06h0v0h0l0,0h0l0,.06h0v0h0l.07.12h0l0,0h0l0,0h0l.13.23h0l.16.27h0l0,.06h0l.05.08h0l3.48,6,1.35-.79L550,356.2Zm9.39,16.27-1.36.78,4.7,8.14,1.36-.79-4.7-8.13Zm9.39,16.27-1.35.78,4.69,8.14,1.36-.79-4.7-8.13ZM578.2,405l-1.36.78,3.88,6.72h0l0,.07h0v0h0l.75,1.3,1.35-.79L578.2,405Zm9.39,16.27-1.36.78,1.95,3.37h0v0h.06v0h0l.09.17h0c1.25,2.15,2.57,4.45,2.57,4.45l1.36-.79-4.7-8.13ZM605,436.77h-9.39v1.56h0v0H605v-1.57Zm-9.39,1.56h0Zm18.78-1.56v1.57h9.39v-1.57Zm18.79,0v1.57h9.39v-1.57Zm18.78,0v1.57h9.4v-1.57Zm28.19,0h-9.4v1.57h9.4v-1.57Zm9.39,0v1.57H699v-1.57Zm18.79,0v1.57h9.39v-1.57Zm18.78,0v1.57h9.4v-1.56Zm28.18,0h-9.39v1.56h9.39v-1.56Zm12.75-7.34-4.69,8.12,1.34.77h0l-1.34-.77,1.34.77h0l.2-.35h0l.53-.91h0v0h0l.06-.1h0l.09-.15h0l.18-.31h0c.06-.1.13-.21.19-.33h0l0-.08h0l.05-.08h0l0,0h0v0h0v0h0l0-.05h0l0,0h0v0h0v0h0l0,0h0v0h0l0,0h0l0,0h0v0h0v0h0l0,0h0l0,0h0l0,0h0v0h0l0,0v0h0l.06-.09h0l.06-.11h0v0h0l0-.09h0l.87-1.51h0l1.76-3-1.35-.78Zm9.39-16.27-4.7,8.13,1.36.78,4.7-8.13-1.36-.78Zm9.39-16.27L782.15,405l1.35.78,3-5.18h0v0h0v0h0l1.62-2.81-1.36-.78Zm9.4-16.27-4.7,8.13,1.36.78,2.23-3.87h0l0,0v0h0l0,0h0l2.38-4.13-1.35-.78Zm9.39-16.27-4.7,8.13,1.36.78,4.7-8.13-1.36-.78ZM815,348.08l-4.69,8.14,1.35.78,4.7-8.13-1.36-.79Zm9.4-16.27-4.7,8.14,1.36.78.2-.35h0l.23-.4h0l.14-.24h0l.08-.12h0l0,0h0l0,0h0l0,0h0v0h0v0h0v0h0v0h0v0h0l0-.06h0v0h0v0h0v0h0v0h0l3.63-6.3-1.35-.79Zm9.39-16.27-4.69,8.14,1.35.78,4.7-8.13-1.36-.79Zm9.4-16.27-1.85,3.21-2.85,4.93,1.36.78,2.84-4.93.08-.14h0l0-.07h0l0-.08v0h0v0h0l0,0h0v0h0l1.6-2.77-1.35-.79Zm1.37-15.48-1.36.78,1.29,2.23,3.4,5.89,1.34-.77h0l-1.34.77,1.34-.77h0l-.15-.26h0l-.38-.66h0l-.55-.95h0l-.62-1.08h0l-.63-1.08h0l-.54-.94h0c-.16-.28-.29-.51-.39-.67h0l-.14-.25h0l-1.29-2.23Zm-9.39-16.27-1.36.78,4.7,8.13,1.36-.78-2.35-4.06h0l0,0h0v0h0v0h0v0h0l0-.05h0l0,0h0l0-.09v0h0v0h0l0,0h0l0,0h0l-2.08-3.6Zm-9.4-16.27-1.35.78,4.7,8.13,1.35-.78-3.21-5.56h0l0,0h0l0-.05h0l-.05-.08h0l0-.08h0l0-.08v0h0l0,0h0v0h0l-1.2-2.07ZM816.4,235l-1.35.78,4.69,8.13,1.36-.78L816.4,235ZM807,218.71l-1.36.78,4.7,8.13,1.35-.78L807,218.71Zm-9.4-16.27-1.35.78,4.69,8.13,1.36-.78-4.7-8.13Zm-9.39-16.27-1.36.78,4.7,8.13,1.36-.78L789,187.58h0l0-.07h0l0,0h0v0h0l0,0h0v0h0v0h0v0h0v0h0l-.05-.09h0l0,0h0v0h0l-.48-.82Zm-9.39-16.27-1.36.78,4.7,8.13,1.35-.78-4.69-8.13Zm-9.4-16.27-1.35.78,4.69,8.13,1.36-.78-3.66-6.34h0v0h0l0,0v0h0l0,0h0v0h0v0h0l0,0h0l0,0h0l0,0h0l0-.07h0l0-.07h0c-.44-.76-.74-1.26-.74-1.26Zm-14.08-8.16V147h9.37V145.5h0v0h-9.37Zm-18.78,0V147H746v-1.56h-9.39Zm-18.79,0V147h9.39v-1.56h-9.39Zm-18.79,0V147h9.4v-1.56H699Zm-18.78,0V147h9.39v-1.56Zm-18.79,0V147h9.39v-1.56Zm-18.79,0V147H652v-1.56Zm-18.79,0V147h9.4v-1.56Zm-18.78,0V147h9.39v-1.56Z"/><path class="cls-3" d="M745.85,165.54H614.51a12.64,12.64,0,0,0-10.93,6.31L537.91,285.6a12.62,12.62,0,0,0,0,12.61L603.58,412a12.61,12.61,0,0,0,10.92,6.3H745.85A12.61,12.61,0,0,0,756.77,412l65.68-113.75a12.62,12.62,0,0,0,0-12.61L756.78,171.85A12.64,12.64,0,0,0,745.85,165.54Z"/><rect class="cls-2" x="840.61" y="299.61" width="6.26" height="1.24" transform="translate(161.89 880.85) rotate(-60)"/><rect class="cls-2" x="836.27" y="296.48" width="6.26" height="2.5" transform="translate(162.04 876.02) rotate(-60.02)"/><polygon class="cls-2" points="830.1 295.06 832.27 293.82 831.19 291.92 831.2 291.92 832.3 290.01 830.13 288.76 829.76 289.4 829.74 289.37 829.17 288.38 827 289.62 828.28 291.87 828.3 291.91 828.3 291.92 826.99 294.18 829.16 295.44 829.74 294.43 830.1 295.06"/><rect class="cls-2" x="843.16" y="280.53" width="1.25" height="6.26" transform="translate(-29.68 455.41) rotate(-29.71)"/><polygon class="cls-2" points="834.07 285.59 831.89 286.83 834.79 291.91 834.8 291.93 831.87 297 834.04 298.25 837.17 292.83 835.62 291.93 835.6 291.92 837.17 291.03 834.07 285.59"/><rect class="cls-2" x="838.18" y="283.01" width="2.51" height="6.26" transform="translate(-31.52 453.35) rotate(-29.69)"/><polygon class="cls-2" points="524.86 291.84 524.88 291.85 523.31 292.73 526.38 298.19 528.56 296.96 525.69 291.87 525.68 291.85 528.64 286.79 526.47 285.53 523.31 290.93 524.86 291.84"/><rect class="cls-2" x="517.98" y="284.77" width="6.26" height="2.5" transform="translate(11.13 591.45) rotate(-59.68)"/><rect class="cls-2" x="513.66" y="282.87" width="6.26" height="1.24" transform="translate(10.52 585.37) rotate(-59.55)"/><rect class="cls-2" x="519.77" y="294.48" width="2.51" height="6.26" transform="translate(-79 294.01) rotate(-29.39)"/><rect class="cls-2" x="516.03" y="296.94" width="1.25" height="6.26" transform="translate(-80.76 291.79) rotate(-29.35)"/><polygon class="cls-2" points="530.4 288.74 528.22 289.97 529.29 291.87 529.29 291.88 528.18 293.78 530.34 295.04 530.71 294.4 530.73 294.43 531.29 295.43 533.47 294.2 532.2 291.94 532.18 291.9 532.18 291.9 533.5 289.64 531.34 288.37 530.75 289.37 530.4 288.74"/><rect class="cls-2" x="594.41" y="423.89" width="2.5" height="6.26" transform="translate(-134.56 364.31) rotate(-30.73)"/><rect class="cls-2" x="590.73" y="426.45" width="1.24" height="6.26" transform="translate(-136.38 361.51) rotate(-30.65)"/><polygon class="cls-2" points="602.97 425.85 599.99 420.81 597.83 422.09 601.03 427.47 602.57 426.56 602.59 426.55 602.6 428.35 608.86 428.31 608.84 425.8 603 425.84 602.97 425.85"/><polygon class="cls-2" points="606.17 420.19 606.17 420.18 604.83 417.93 602.67 419.21 603.26 420.21 602.54 420.21 602.56 422.72 604.75 422.7 604.75 422.7 605.87 424.6 608.03 423.32 607.65 422.68 607.68 422.68 608.82 422.67 608.8 420.17 606.22 420.19 606.17 420.19"/><rect class="cls-2" x="602.66" y="437.1" width="6.26" height="1.25" transform="translate(-2.87 4) rotate(-0.38)"/><rect class="cls-2" x="602.63" y="431.46" width="6.26" height="2.51" transform="translate(-3.12 4.41) rotate(-0.42)"/><rect class="cls-2" x="587.94" y="153.85" width="6.26" height="1.24" transform="translate(161.1 588.46) rotate(-59.91)"/><polygon class="cls-2" points="602.32 157.37 600.77 156.47 597.63 161.88 599.8 163.14 602.73 158.07 602.76 158.07 608.6 158.05 608.59 155.55 602.33 155.57 602.34 157.38 602.32 157.37"/><polygon class="cls-2" points="604.54 161.2 602.35 161.21 602.36 163.71 603.08 163.71 602.5 164.71 604.67 165.97 605.99 163.7 605.99 163.7 606.04 163.7 608.62 163.69 608.61 161.18 607.47 161.19 607.44 161.19 607.81 160.55 605.64 159.29 604.54 161.19 604.54 161.2"/><rect class="cls-2" x="592.27" y="155.72" width="6.26" height="2.5" transform="translate(161.17 593.54) rotate(-59.92)"/><rect class="cls-2" x="602.29" y="145.54" width="6.26" height="1.25" transform="translate(-0.53 2.22) rotate(-0.21)"/><rect class="cls-2" x="602.31" y="149.92" width="6.26" height="2.51" transform="translate(-0.63 2.56) rotate(-0.24)"/><rect class="cls-2" x="763.48" y="153.71" width="2.5" height="6.26" transform="matrix(0.86, -0.51, 0.51, 0.86, 27.11, 412.44)"/><rect class="cls-2" x="768.41" y="151.15" width="1.24" height="6.26" transform="translate(28.79 413.62) rotate(-30.65)"/><polygon class="cls-2" points="757.82 157.31 757.8 157.31 757.79 155.51 751.53 155.55 751.55 158.06 757.39 158.02 757.42 158.02 760.4 163.05 762.56 161.77 759.36 156.39 757.82 157.31"/><polygon class="cls-2" points="757.83 161.15 755.64 161.16 755.64 161.16 754.52 159.26 752.36 160.54 752.74 161.18 752.71 161.18 751.57 161.19 751.59 163.69 754.17 163.68 754.22 163.68 754.22 163.68 755.56 165.93 757.72 164.65 757.13 163.66 757.85 163.65 757.83 161.15"/><rect class="cls-2" x="751.5" y="149.9" width="6.26" height="2.51" transform="translate(-1.04 5.29) rotate(-0.4)"/><rect class="cls-2" x="751.46" y="145.51" width="6.26" height="1.25" transform="translate(-1.18 6.24) rotate(-0.47)"/><rect class="cls-2" x="761.6" y="425.7" width="6.26" height="2.5" transform="translate(11.81 874.4) rotate(-59.9)"/><rect class="cls-2" x="765.93" y="428.84" width="6.26" height="1.24" transform="translate(11.91 879.6) rotate(-59.91)"/><polygon class="cls-2" points="755.46 417.96 754.15 420.23 754.15 420.23 754.1 420.23 751.51 420.24 751.52 422.75 752.66 422.74 752.69 422.74 752.32 423.38 754.49 424.64 755.59 422.74 755.6 422.73 757.78 422.72 757.77 420.22 757.05 420.22 757.63 419.22 755.46 417.96"/><polygon class="cls-2" points="757.38 425.86 751.53 425.88 751.54 428.38 757.8 428.36 757.8 426.56 757.81 426.56 759.37 427.46 762.5 422.05 760.34 420.79 757.4 425.86 757.38 425.86"/><rect class="cls-2" x="751.58" y="437.14" width="6.26" height="1.25" transform="translate(-1.57 2.72) rotate(-0.21)"/><rect class="cls-2" x="751.56" y="431.5" width="6.26" height="2.51" transform="translate(-1.82 3.19) rotate(-0.24)"/><polygon class="cls-1" points="84.55 438.41 253.63 438.41 331.65 573.53 334.78 578.95 338.18 584.84 334.75 590.77 331.62 596.2 253.63 731.28 84.54 731.28 0 584.84 84.55 438.41"/><path class="cls-2" d="M84.55,438.41l-4.7,8.13,1.35.78,4.7-8.13-1.33-.77h0Zm-9.4,16.27-4.69,8.13,1.35.78,4.7-8.13-1.36-.78ZM65.76,471l-4.7,8.13,1.36.78,4.69-8.13L65.76,471Zm-9.4,16.27-3.68,6.37h0l-.09.15h0l-.9,1.57,1.35.78,4.7-8.13-1.36-.78ZM47,503.49l-3.28,5.67h0v0h0v0l-1.39,2.39,1.36.78,4.7-8.13L47,503.49Zm-9.39,16.27-2.85,4.92h0v0h0l-1.8,3.12,1.36.78,4.69-8.13-1.35-.78ZM28.18,536l-2.47,4.28v0h0l0,0h0v0h0l0,0h0l0,0h0l-2.12,3.68,1.35.78,4.7-8.13L28.18,536ZM18.79,552.3l-4.7,8.13,1.36.78,4.7-8.13-1.36-.78ZM9.4,568.57l-2.3,4h0l0,0h0v0H7l0,0H7l0,.06H7L4.7,576.7l1.35.78,4.7-8.13-1.35-.78Zm-8,15.49L0,584.84H0L4.69,593l1.36-.78-4.69-8.13Zm9.39,16.26-1.36.79.37.63h0l0,0h0l0,0h0l4.24,7.33,1.35-.78-4.69-8.14Zm9.39,16.27-1.36.79,4.7,8.13,1.36-.78-4.7-8.14Zm9.39,16.27-1.35.79,1.53,2.64h0v0h0v0h0c1.37,2.36,3.13,5.42,3.13,5.42l1.36-.78-4.7-8.14Zm9.4,16.27-1.36.79h0v0h0v0h0v0h0v0h0l0,0h0l0,0h0l0,0h0v0h0v0h0v0h0l0,0h0v0h0v0h0l0,0h0v0h0v0h0v0h0l0,0,0,0h0l0,.06h0v0h0l0,0h0l0,.06h0v0h0l.07.12h0l0,0h0v0h0l0,0h0l.13.23h0l.16.27h0l0,.06h0l.05.09h0l3.48,6,1.35-.78-4.69-8.14Zm9.39,16.28-1.36.78,4.7,8.13,1.36-.78-4.7-8.13Zm9.39,16.27-1.35.78,4.69,8.13,1.36-.78-4.7-8.13ZM67.11,698l-1.36.78,3.88,6.72h0l0,.07h0l.75,1.3,1.35-.78L67.11,698Zm9.39,16.27-1.36.78,2,3.37h0v0h0v0h0l0,0h0l.09.17h0l2.57,4.44,1.36-.78-4.7-8.13Zm17.43,15.49H84.54v1.56h0v0h9.39v-1.57Zm-9.39,1.56h0Zm18.78-1.56v1.57h9.39v-1.57Zm18.79,0v1.57h9.39v-1.57Zm18.78,0v1.57h9.4v-1.57Zm28.18,0h-9.39v1.57h9.39v-1.57Zm9.4,0v1.57h9.39v-1.57Zm18.79,0v1.57h9.39v-1.57Zm18.78,0v1.57h9.4v-1.57Zm28.18,0h-9.39v1.57h9.39v-1.57ZM257,722.37l-4.69,8.13,1.34.77h0l-1.34-.77,1.34.77h0l.2-.35h0l.53-.92h0v0h0l.06-.11h0a1.09,1.09,0,0,0,.08-.15h0l.18-.31h0l.19-.33h0l0-.08h0l0-.08h0l0,0h0v0h0v0h0v0l0,0h0l0,0h0v0h0v0h0l0,0h0l0,0h0l0-.05h0v0h0v0h0v0h0l0,0h0l0,0h0l0,0h0v0h0l0,0h0l.06-.09h0l.06-.1h0v0h0l.05-.1h0l.87-1.51h0l1.76-3.05-1.35-.79Zm9.39-16.27-4.7,8.14L263,715l4.7-8.13-1.36-.79Zm9.39-16.27L271.06,698l1.35.78s1.65-2.86,3-5.18h0v0h0l1.62-2.81-1.36-.79Zm9.4-16.27-4.7,8.14,1.36.78,2.23-3.87h0l0,0v0h0l0,0h0l2.38-4.13-1.35-.79Zm9.39-16.27-4.7,8.14,1.36.78,4.7-8.13-1.36-.79ZM303.93,641l-4.69,8.14,1.35.78,4.7-8.13-1.36-.79Zm9.4-16.27-4.7,8.14,1.36.78.2-.35h0l.23-.4h0l.14-.25h0l.08-.13h0l0,0h0l0,0h0l0,0h0l0,0h0v0h0v0h0v0h.07l0,0h0v0h0v0h0v0h0l3.63-6.3-1.35-.79Zm9.39-16.27-4.7,8.14,1.36.78,4.7-8.14-1.36-.78Zm9.4-16.27-1.85,3.2-2.85,4.94,1.35.78,2.85-4.93.08-.14h0l0-.07h0l.05-.09h0v0h0v0h0l0,0h0l1.6-2.78-1.35-.78Zm1.37-15.49-1.36.79,1.29,2.23,3.4,5.89,1.34-.78h0l-1.34.78,1.34-.78h0l-.15-.25h0l-.38-.67h0l-.55-.94h0l-.62-1.08h0l-.63-1.08h0l-.54-1h0l-.39-.66h0l-.14-.26h0l-1.29-2.23Zm-9.39-16.27-1.36.79,4.7,8.13,1.35-.78-2.34-4.06h0v0h0v0h0v0h0v0h0l0,0h0l0,0h0l-.05-.09v0h0v0l0,0h0l0,0h0l0,0h0l-2.08-3.61Zm-9.4-16.27-1.35.79,4.7,8.13,1.35-.78s-1.83-3.18-3.21-5.56h0l0,0h0l0,0h0l-.05-.09h0l0-.09h0l-.05-.08h0l0,0h0v0h0l-1.2-2.08Zm-9.39-16.27-1.36.79,4.7,8.13,1.36-.78-4.7-8.14Zm-9.39-16.27-1.36.79,4.7,8.13,1.35-.78-4.69-8.14Zm-9.4-16.27-1.35.79,4.69,8.13,1.36-.78-4.7-8.14Zm-9.39-16.27-1.36.79,4.7,8.13,1.36-.78L278,480.52h0l0-.07h0l0,0h0v-.05h0v0h0l0,0h0v0h0v0l0,0h0v0h0l-.05-.09h0l0-.06h0v0h0l-.48-.83Zm-9.39-16.27-1.36.79,4.7,8.13,1.35-.78-4.69-8.13h0Zm-9.4-16.27-1.35.79,4.69,8.13,1.36-.78-3.66-6.34h0v0h0l0,0v0h0l0,0h0v0h0v0h0v0h0v0h0v0h0l0,0h0l0,0h0l0,0h0l0-.07h0l0-.07h0c-.43-.76-.73-1.27-.73-1.27Zm-14.08-8.15V440h9.37v-1.54h0v0h-9.37Zm-18.78,0V440h9.39v-1.56h-9.39Zm-18.79,0V440h9.39v-1.56h-9.39Zm-18.79,0V440h9.4v-1.56h-9.4Zm-18.78,0V440h9.39v-1.56Zm-18.79,0V440h9.39v-1.56Zm-18.79,0V440h9.39v-1.56Zm-18.79,0V440h9.4v-1.56Zm-18.78,0V440h9.39v-1.56Z"/><path class="cls-3" d="M234.76,458.48H103.42a12.62,12.62,0,0,0-10.93,6.31L26.82,578.53a12.64,12.64,0,0,0,0,12.62L92.49,704.9a12.61,12.61,0,0,0,10.92,6.3H234.76a12.61,12.61,0,0,0,10.92-6.3l65.68-113.75a12.62,12.62,0,0,0,0-12.61L245.68,464.79A12.61,12.61,0,0,0,234.76,458.48Z"/><rect class="cls-2" x="329.52" y="592.55" width="6.26" height="1.24" transform="translate(-347.38 584.7) rotate(-60)"/><rect class="cls-2" x="325.18" y="589.42" width="6.26" height="2.5" transform="translate(-347.38 579.87) rotate(-60.02)"/><polygon class="cls-2" points="319.01 588 321.18 586.76 320.1 584.86 320.1 584.86 321.2 582.95 319.04 581.7 318.67 582.34 318.65 582.31 318.08 581.32 315.91 582.56 317.19 584.81 317.21 584.85 317.21 584.85 315.9 587.12 318.07 588.37 318.65 587.37 319.01 588"/><rect class="cls-2" x="332.07" y="573.46" width="1.25" height="6.26" transform="translate(-242.01 240.64) rotate(-29.71)"/><polygon class="cls-2" points="322.98 578.53 320.8 579.77 323.7 584.85 323.71 584.87 320.78 589.94 322.95 591.19 326.08 585.77 324.53 584.87 324.51 584.86 326.08 583.97 322.98 578.53"/><rect class="cls-2" x="327.09" y="575.94" width="2.51" height="6.26" transform="translate(-243.72 238.66) rotate(-29.69)"/><polygon class="cls-2" points="13.77 584.78 13.79 584.79 12.22 585.67 15.29 591.13 17.47 589.9 14.6 584.81 14.59 584.78 17.55 579.73 15.38 578.47 12.22 583.87 13.77 584.78"/><rect class="cls-2" x="6.89" y="577.7" width="6.26" height="2.5" transform="translate(-494.8 295.32) rotate(-59.68)"/><rect class="cls-2" x="2.57" y="575.81" width="6.26" height="1.24" transform="translate(-494.13 289.25) rotate(-59.55)"/><rect class="cls-2" x="8.68" y="587.42" width="2.51" height="6.26" transform="translate(-288.55 80.89) rotate(-29.39)"/><rect class="cls-2" x="4.94" y="589.88" width="1.25" height="6.26" transform="translate(-289.97 78.86) rotate(-29.35)"/><polygon class="cls-2" points="19.31 581.68 17.13 582.91 18.2 584.81 18.2 584.82 17.09 586.72 19.25 587.98 19.62 587.34 19.64 587.37 20.2 588.36 22.38 587.13 21.11 584.88 21.09 584.84 21.09 584.84 22.41 582.57 20.25 581.31 19.66 582.31 19.31 581.68"/><rect class="cls-2" x="83.32" y="716.83" width="2.5" height="6.26" transform="translate(-356 144.29) rotate(-30.73)"/><rect class="cls-2" x="79.64" y="719.38" width="1.24" height="6.26" transform="translate(-357.14 141.87) rotate(-30.65)"/><polygon class="cls-2" points="91.88 718.78 88.89 713.75 86.74 715.03 89.94 720.41 91.48 719.49 91.5 719.49 91.51 721.29 97.77 721.25 97.75 718.74 91.91 718.78 91.88 718.78"/><polygon class="cls-2" points="95.08 713.12 95.08 713.12 93.74 710.87 91.58 712.15 92.17 713.14 91.45 713.15 91.47 715.65 93.66 715.64 93.66 715.64 94.78 717.53 96.94 716.25 96.56 715.62 96.59 715.62 97.73 715.61 97.71 713.11 95.13 713.12 95.08 713.12"/><rect class="cls-2" x="91.57" y="730.04" width="6.26" height="1.25" transform="translate(-4.81 0.64) rotate(-0.38)"/><rect class="cls-2" x="91.54" y="724.4" width="6.26" height="2.51" transform="translate(-5.26 0.71) rotate(-0.42)"/><rect class="cls-2" x="76.85" y="446.78" width="6.26" height="1.24" transform="translate(-347.24 292.32) rotate(-59.91)"/><polygon class="cls-2" points="91.23 450.3 89.68 449.4 86.54 454.82 88.71 456.08 91.64 451.01 91.67 451.01 97.51 450.99 97.5 448.48 91.24 448.51 91.25 450.31 91.23 450.3"/><polygon class="cls-2" points="93.45 454.14 91.26 454.14 91.27 456.65 91.99 456.65 91.41 457.65 93.58 458.9 94.9 456.64 94.9 456.63 94.95 456.63 97.53 456.62 97.52 454.12 96.38 454.12 96.35 454.12 96.72 453.48 94.55 452.23 93.45 454.13 93.45 454.14"/><rect class="cls-2" x="81.18" y="448.66" width="6.26" height="2.5" transform="translate(-347.28 297.4) rotate(-59.92)"/><rect class="cls-2" x="91.2" y="438.48" width="6.26" height="1.25" transform="translate(-1.61 0.35) rotate(-0.21)"/><rect class="cls-2" x="91.22" y="442.86" width="6.26" height="2.51" transform="translate(-1.87 0.4) rotate(-0.24)"/><rect class="cls-2" x="252.39" y="446.65" width="2.5" height="6.26" transform="matrix(0.86, -0.51, 0.51, 0.86, -194.1, 192.55)"/><rect class="cls-2" x="257.32" y="444.09" width="1.24" height="6.26" transform="translate(-191.96 193.99) rotate(-30.65)"/><polygon class="cls-2" points="246.73 450.24 246.71 450.25 246.7 448.45 240.44 448.49 240.46 451 246.3 450.95 246.33 450.95 249.31 455.99 251.47 454.71 248.27 449.33 246.73 450.24"/><polygon class="cls-2" points="246.74 454.08 244.55 454.1 244.55 454.1 243.43 452.2 241.27 453.48 241.65 454.12 241.62 454.12 240.48 454.13 240.5 456.63 243.08 456.61 243.13 456.61 243.13 456.62 244.47 458.87 246.63 457.59 246.03 456.59 246.75 456.59 246.74 454.08"/><rect class="cls-2" x="240.41" y="442.83" width="6.26" height="2.51" transform="translate(-3.11 1.72) rotate(-0.4)"/><rect class="cls-2" x="240.37" y="438.45" width="6.26" height="1.25" transform="translate(-3.62 2.03) rotate(-0.47)"/><rect class="cls-2" x="250.51" y="718.64" width="6.26" height="2.5" transform="translate(-496.37 578.26) rotate(-59.9)"/><rect class="cls-2" x="254.84" y="721.78" width="6.26" height="1.24" transform="translate(-496.42 583.45) rotate(-59.91)"/><polygon class="cls-2" points="244.37 710.9 243.06 713.17 243.06 713.17 243.01 713.17 240.42 713.18 240.43 715.68 241.57 715.68 241.6 715.68 241.23 716.32 243.4 717.58 244.5 715.67 244.5 715.67 246.69 715.66 246.68 713.15 245.96 713.16 246.54 712.16 244.37 710.9"/><polygon class="cls-2" points="246.29 718.79 240.44 718.81 240.45 721.32 246.72 721.29 246.71 719.49 246.72 719.5 248.28 720.4 251.41 714.98 249.25 713.73 246.31 718.79 246.29 718.79"/><rect class="cls-2" x="240.49" y="730.08" width="6.26" height="1.25" transform="translate(-2.63 0.88) rotate(-0.21)"/><rect class="cls-2" x="240.47" y="724.44" width="6.26" height="2.51" transform="translate(-3.06 1.04) rotate(-0.24)"/><polygon class="cls-1" points="595.64 438.41 764.72 438.41 842.74 573.53 845.87 578.95 849.27 584.84 845.84 590.77 842.71 596.2 764.72 731.28 595.63 731.28 511.09 584.84 595.64 438.41"/><path class="cls-2" d="M595.64,438.41l-4.7,8.13,1.36.78,4.69-8.13-1.33-.77h0Zm-9.4,16.27-4.69,8.13,1.35.78,4.7-8.13-1.36-.78ZM576.85,471l-4.7,8.13,1.36.78,4.69-8.13-1.35-.78Zm-9.39,16.27-3.68,6.37h0l-.08.15h0l-.9,1.57,1.35.78,4.7-8.13-1.35-.78Zm-9.4,16.27-3.28,5.67h0v0h0v0l-1.39,2.39,1.36.78,4.7-8.13-1.36-.78Zm-9.39,16.27-2.85,4.92h0v0h0l-1.8,3.12,1.36.78,4.69-8.13-1.35-.78ZM539.27,536l-2.47,4.28v0h0l0,0h0v0h0l0,0h0l0,0h0l-2.12,3.68,1.35.78,4.7-8.13-1.36-.78Zm-9.39,16.27-4.7,8.13,1.36.78,4.7-8.13-1.36-.78Zm-9.39,16.27-2.3,4h0l0,0h0v0h0l0,0h0l0,.06h0l-2.27,3.94,1.36.78,4.69-8.13-1.35-.78Zm-8,15.49-1.36.78h0l4.7,8.13,1.35-.78-4.69-8.13Zm9.39,16.26-1.36.79.37.63h0l0,0h0l0,0h0l4.24,7.33,1.35-.78-4.69-8.14Zm9.39,16.27-1.35.79,4.69,8.13,1.36-.78-4.7-8.14Zm9.39,16.27-1.35.79,1.53,2.64h0v0h0v0h0c1.37,2.36,3.13,5.42,3.13,5.42l1.36-.78-4.7-8.14Zm9.4,16.27-1.36.79h0v0h0v0h0v0h0l0,0h0l0,0h0l0,0h0l0,0h0v0h0v0h0v0h0v0h0v0h0v0h0l0,0h0v0h0v0h0v0h0l0,0,0,0h0l0,.06h0v0h0l0,0h0l0,.06h0v0h0l.07.12h0l0,0h0v0h0l0,0h0l.13.23h0l.16.27h0l0,.06h0l.05.09h0l3.48,6,1.35-.78L550,649.13Zm9.39,16.28-1.36.78,4.7,8.13,1.36-.78-4.7-8.13Zm9.39,16.27-1.35.78,4.69,8.13,1.36-.78-4.7-8.13ZM578.2,698l-1.36.78,3.88,6.72h0l0,.07h0l.75,1.3,1.35-.78L578.2,698Zm9.39,16.27-1.36.78,1.95,3.37h0v0h0v0h0v0h0l.09.17h0l2.57,4.44,1.36-.78-4.7-8.13ZM605,729.71h-9.39v1.56h0v0H605v-1.57Zm-9.39,1.56h0Zm18.78-1.56v1.57h9.39v-1.57Zm18.79,0v1.57h9.39v-1.57Zm18.78,0v1.57h9.4v-1.57Zm28.19,0h-9.4v1.57h9.4v-1.57Zm9.39,0v1.57H699v-1.57Zm18.79,0v1.57h9.39v-1.57Zm18.78,0v1.57h9.4v-1.57Zm28.18,0h-9.39v1.57h9.39v-1.57Zm12.75-7.34-4.69,8.13,1.34.77h0l-1.34-.77,1.34.77h0l.2-.35h0l.53-.92h0v0h0l.06-.11h0l.09-.15h0l.18-.31h0l.19-.33h0l0-.08h0l.05-.08h0l0,0h0v0h0v0h0v0l0,0h0l0,0h0v0h0v0h0l0,0h0l0,0h0l0-.05h0v0h0v0h0v0h0l0,0h0l0,0h0l0,0h0v0h0l0,0h0l.06-.09h0l.06-.1h0v0h0l0-.1h0l.87-1.51h0l1.76-3.05-1.35-.79Zm9.39-16.27-4.7,8.14,1.36.78,4.7-8.13-1.36-.79Zm9.39-16.27L782.15,698l1.35.78s1.65-2.86,3-5.18h0v0h0l1.62-2.81-1.36-.79Zm9.4-16.27-4.7,8.14,1.36.78,2.23-3.87h0l0,0v0h0l0,0h0l2.38-4.13-1.35-.79Zm9.39-16.27-4.7,8.14,1.36.78,4.7-8.13-1.36-.79ZM815,641l-4.69,8.14,1.35.78,4.7-8.13L815,641Zm9.4-16.27-4.7,8.14,1.36.78.2-.35h0l.23-.4h0l.14-.25h0l.08-.13h0l0,0h0l0,0h0l0,0h0v0h0v0h0v0h0v0H822l0,0h0v0h0v0h0v0h0l3.63-6.3-1.35-.79Zm9.39-16.27-4.69,8.14,1.35.78,4.7-8.14-1.36-.78Zm9.4-16.27-1.85,3.2-2.85,4.94,1.36.78,2.84-4.93.08-.14h0l0-.07h0l0-.09h0v0h0l0,0h0v0h0l1.6-2.78-1.35-.78Zm1.37-15.49-1.36.79,1.29,2.23,3.4,5.89,1.34-.78h0l-1.34.78,1.34-.78h0l-.15-.25h0l-.38-.67h0l-.55-.94h0l-.62-1.08h0l-.63-1.08h0l-.54-1h0l-.39-.66h0l-.14-.26h0l-1.29-2.23Zm-9.39-16.27-1.36.79,4.7,8.13,1.36-.78-2.35-4.06h0l0,0h0v0h0v0h0v0h0l0,0h0l0,0h0l0-.09v0h0v0h0l0,0h0l0,0h0l-2.08-3.61Zm-9.4-16.27-1.35.79,4.7,8.13,1.35-.78s-1.83-3.18-3.21-5.56h0l0,0h0l0,0h0l-.05-.09h0l0-.09h0l0-.08h0l0,0h0v0h0l-1.2-2.08Zm-9.39-16.27-1.35.79,4.69,8.13,1.36-.78-4.7-8.14ZM807,511.64l-1.36.79,4.7,8.13,1.35-.78L807,511.64Zm-9.4-16.27-1.35.79,4.69,8.13,1.36-.78-4.7-8.14Zm-9.39-16.27-1.36.79,4.7,8.13,1.36-.78L789,480.52h0l0-.07h0l0,0h0v-.05h0v0h0l0,0h0v0h0v-.05h0v0h0l-.05-.09h0l0-.06h0v0h0l-.48-.83Zm-9.39-16.27-1.36.79,4.7,8.13,1.35-.78-4.69-8.13h0Zm-9.4-16.27-1.35.79,4.69,8.13,1.36-.78-3.66-6.34h0v0h0l0,0v0h0l0,0h0v0h0v0h0v0h0v0h0v0h0l0,0h0l0,0h0l0,0h0l0-.07h0l0-.07h0l-.74-1.27Zm-14.08-8.15V440h9.37v-1.54h0v0h-9.37Zm-18.78,0V440H746v-1.56h-9.39Zm-18.79,0V440h9.39v-1.56h-9.39Zm-18.79,0V440h9.4v-1.56H699Zm-18.78,0V440h9.39v-1.56Zm-18.79,0V440h9.39v-1.56Zm-18.79,0V440H652v-1.56Zm-18.79,0V440h9.4v-1.56Zm-18.78,0V440h9.39v-1.56Z"/><path class="cls-3" d="M745.85,458.48H614.51a12.62,12.62,0,0,0-10.93,6.31L537.91,578.53a12.64,12.64,0,0,0,0,12.62L603.58,704.9a12.61,12.61,0,0,0,10.92,6.3H745.85a12.6,12.6,0,0,0,10.92-6.3l65.68-113.75a12.62,12.62,0,0,0,0-12.61L756.78,464.79A12.64,12.64,0,0,0,745.85,458.48Z"/><rect class="cls-2" x="840.61" y="592.55" width="6.26" height="1.24" transform="translate(-91.81 1027.33) rotate(-60)"/><rect class="cls-2" x="836.27" y="589.42" width="6.26" height="2.5" transform="translate(-91.7 1022.57) rotate(-60.02)"/><polygon class="cls-2" points="830.1 588 832.27 586.76 831.19 584.86 831.2 584.86 832.3 582.95 830.13 581.7 829.76 582.34 829.74 582.31 829.17 581.32 827 582.56 828.28 584.81 828.3 584.85 828.3 584.85 826.99 587.12 829.16 588.37 829.74 587.37 830.1 588"/><rect class="cls-2" x="843.16" y="573.46" width="1.25" height="6.26" transform="translate(-174.84 493.91) rotate(-29.71)"/><polygon class="cls-2" points="834.07 578.53 831.89 579.77 834.79 584.85 834.8 584.87 831.87 589.94 834.04 591.19 837.17 585.77 835.62 584.87 835.6 584.86 837.17 583.97 834.07 578.53"/><rect class="cls-2" x="838.18" y="575.94" width="2.51" height="6.26" transform="translate(-176.62 491.81) rotate(-29.69)"/><polygon class="cls-2" points="524.86 584.78 524.88 584.79 523.31 585.67 526.38 591.13 528.56 589.9 525.69 584.81 525.68 584.78 528.64 579.73 526.47 578.47 523.31 583.87 524.86 584.78"/><rect class="cls-2" x="517.98" y="577.7" width="6.26" height="2.5" transform="translate(-241.73 736.5) rotate(-59.68)"/><rect class="cls-2" x="513.66" y="575.81" width="6.26" height="1.24" transform="translate(-242.03 729.86) rotate(-59.55)"/><rect class="cls-2" x="519.77" y="587.42" width="2.51" height="6.26" transform="translate(-222.76 331.72) rotate(-29.39)"/><rect class="cls-2" x="516.03" y="589.88" width="1.25" height="6.26" transform="translate(-224.36 329.4) rotate(-29.35)"/><polygon class="cls-2" points="530.4 581.68 528.22 582.91 529.29 584.81 529.29 584.82 528.18 586.72 530.34 587.98 530.71 587.34 530.73 587.37 531.29 588.36 533.47 587.13 532.2 584.88 532.18 584.84 532.18 584.84 533.5 582.57 531.34 581.31 530.75 582.31 530.4 581.68"/><rect class="cls-2" x="594.41" y="716.83" width="2.5" height="6.26" transform="translate(-284.24 405.44) rotate(-30.73)"/><rect class="cls-2" x="590.73" y="719.38" width="1.24" height="6.26" transform="translate(-285.73 402.44) rotate(-30.65)"/><polygon class="cls-2" points="602.97 718.78 599.99 713.75 597.83 715.03 601.03 720.41 602.57 719.49 602.59 719.49 602.6 721.29 608.86 721.25 608.84 718.74 603 718.78 602.97 718.78"/><polygon class="cls-2" points="606.17 713.12 606.17 713.12 604.83 710.87 602.67 712.15 603.26 713.14 602.54 713.15 602.56 715.65 604.75 715.64 604.75 715.64 605.87 717.53 608.03 716.25 607.65 715.62 607.68 715.62 608.82 715.61 608.8 713.11 606.22 713.12 606.17 713.12"/><rect class="cls-2" x="602.66" y="730.04" width="6.26" height="1.25" transform="translate(-4.8 4) rotate(-0.38)"/><rect class="cls-2" x="602.63" y="724.4" width="6.26" height="2.51" transform="translate(-5.25 4.41) rotate(-0.42)"/><rect class="cls-2" x="587.94" y="446.78" width="6.26" height="1.24" transform="translate(-92.37 734.54) rotate(-59.91)"/><polygon class="cls-2" points="602.32 450.3 600.77 449.4 597.63 454.82 599.8 456.08 602.73 451.01 602.76 451.01 608.6 450.99 608.59 448.48 602.33 448.51 602.34 450.31 602.32 450.3"/><polygon class="cls-2" points="604.54 454.14 602.35 454.14 602.36 456.65 603.08 456.65 602.5 457.65 604.67 458.9 605.99 456.64 605.99 456.63 606.04 456.63 608.62 456.62 608.61 454.12 607.47 454.12 607.44 454.12 607.81 453.48 605.64 452.23 604.54 454.13 604.54 454.14"/><rect class="cls-2" x="592.27" y="448.66" width="6.26" height="2.5" transform="translate(-92.33 739.67) rotate(-59.92)"/><rect class="cls-2" x="602.29" y="438.48" width="6.26" height="1.25" transform="translate(-1.6 2.22) rotate(-0.21)"/><rect class="cls-2" x="602.31" y="442.86" width="6.26" height="2.51" transform="translate(-1.87 2.56) rotate(-0.24)"/><rect class="cls-2" x="763.48" y="446.65" width="2.5" height="6.26" transform="matrix(0.86, -0.51, 0.51, 0.86, -122.46, 453.5)"/><rect class="cls-2" x="768.41" y="444.09" width="1.24" height="6.26" transform="translate(-120.55 454.55) rotate(-30.65)"/><polygon class="cls-2" points="757.82 450.24 757.8 450.25 757.79 448.45 751.53 448.49 751.55 451 757.39 450.95 757.42 450.95 760.4 455.99 762.56 454.71 759.36 449.33 757.82 450.24"/><polygon class="cls-2" points="757.83 454.08 755.64 454.1 755.64 454.1 754.52 452.2 752.36 453.48 752.74 454.12 752.71 454.12 751.57 454.13 751.59 456.63 754.17 456.61 754.22 456.61 754.22 456.62 755.56 458.87 757.72 457.59 757.13 456.59 757.85 456.59 757.83 454.08"/><rect class="cls-2" x="751.5" y="442.83" width="6.26" height="2.51" transform="translate(-3.09 5.3) rotate(-0.4)"/><rect class="cls-2" x="751.46" y="438.45" width="6.26" height="1.25" transform="translate(-3.6 6.25) rotate(-0.47)"/><rect class="cls-2" x="761.6" y="718.64" width="6.26" height="2.5" transform="translate(-241.62 1020.42) rotate(-59.9)"/><rect class="cls-2" x="765.93" y="721.78" width="6.26" height="1.24" transform="translate(-241.55 1025.68) rotate(-59.91)"/><polygon class="cls-2" points="755.46 710.9 754.15 713.17 754.15 713.17 754.1 713.17 751.51 713.18 751.52 715.68 752.66 715.68 752.69 715.68 752.32 716.32 754.49 717.58 755.59 715.67 755.6 715.67 757.78 715.66 757.77 713.15 757.05 713.16 757.63 712.16 755.46 710.9"/><polygon class="cls-2" points="757.38 718.79 751.53 718.81 751.54 721.32 757.8 721.29 757.8 719.49 757.81 719.5 759.37 720.4 762.5 714.98 760.34 713.73 757.4 718.79 757.38 718.79"/><rect class="cls-2" x="751.58" y="730.08" width="6.26" height="1.25" transform="translate(-2.62 2.72) rotate(-0.21)"/><rect class="cls-2" x="751.56" y="724.44" width="6.26" height="2.51" transform="translate(-3.06 3.19) rotate(-0.24)"/></g></g></svg>