<svg xmlns="http://www.w3.org/2000/svg" viewBox="0 0 1456.39 444.72"><g id="Camada_2" data-name="Camada 2"><g id="Camada_1-2" data-name="Camada 1"><path d="M553.53,211.29v65.34H537.14V131.41h16.39v64.52h83.81V131.41h16.39V276.63H637.34V211.29Z"/><path d="M801.86,146.35H713.27v49.58h79.25v14.94H713.27V261.7H802.9v14.93h-106V131.41h105Z"/><path d="M938.78,276.63l-46.47-62.44-46.47,62.44H827l55.81-74.06L829,131.41h19.29l44.6,59.34,44.19-59.34h19.09l-53.73,71,55.8,74.27Z"/><path d="M1092.82,264.08a72.14,72.14,0,0,1-13.17,8,75.72,75.72,0,0,1-15.15,5.19,80.69,80.69,0,0,1-18,1.86,71.32,71.32,0,0,1-52.07-21.68,72.56,72.56,0,0,1-15.25-23.75,81.22,81.22,0,0,1,0-58.71,75,75,0,0,1,15.25-24,70.74,70.74,0,0,1,23.24-16.18,72.39,72.39,0,0,1,29.46-5.92,89,89,0,0,1,17.94,1.66,75,75,0,0,1,14.83,4.67,67.2,67.2,0,0,1,12.66,7.26,111.78,111.78,0,0,1,11.2,9.44l-11.2,12a91.84,91.84,0,0,0-20-14.31q-10.68-5.59-25.62-5.6a54.11,54.11,0,0,0-40.14,17.22,58.39,58.39,0,0,0-11.83,19,64.07,64.07,0,0,0-4.25,23.55,64.91,64.91,0,0,0,4.25,23.65,58.11,58.11,0,0,0,11.83,19.08,55.55,55.55,0,0,0,17.84,12.76,53.26,53.26,0,0,0,22.3,4.67q14.94,0,25.72-5.5A89.28,89.28,0,0,0,1093.75,243l10.79,10.58A103.05,103.05,0,0,1,1092.82,264.08Z"/><path d="M1153.09,131.41V276.63H1136.7V131.41Z"/><path d="M1252.46,276.63h-16.39V146.56h-48.76V131.41h113.9v15.15h-48.75Z"/><path d="M1396,276.63h-16.39V219.17l-60.37-87.76h19.91L1388,204l49.27-72.61h19.09L1396,219Z"/><path d="M547,335.25c0,3.08,2.56,4.5,12.31,4.5,8.08,0,10.52-.88,10.52-3.17s-1.71-2.83-11.41-3.28c-13-.59-18.22-2.58-18.22-9.12s6.71-8.44,17.92-8.44,18.12,2.74,18.12,9.94h-7.69c0-3.2-3.3-4-11.29-4-7.57,0-9.36.7-9.36,2.87s1.79,2.66,10.52,3.16c11.79.62,19.11,1.25,19.11,8.61,0,7.79-7.57,9.37-18.65,9.37-12.27,0-19.58-2-19.58-10.45Z"/><path d="M639,345.28h-7.69v-20l-12.45,20h-5.55l-12.45-20v20h-7.69V316.15h10.39l12.53,20.56,12.52-20.56H639Z"/><path d="M683.23,339.08H665.32l-3.21,6.2h-8.47l15.44-29.13h10.39l15.47,29.13h-8.5Zm-2.86-5.58-6.08-11.81-6.11,11.81Z"/><path d="M738.09,336.63l5.52,8.65h-9.07l-4.83-7.78h-12.4v7.78h-7.69V316.15h23.51c6.8,0,11.46,4.21,11.46,10.7A9.93,9.93,0,0,1,738.09,336.63Zm-20.78-5.41H731c2.3,0,5.9,0,5.9-4.37s-3.6-4.41-5.9-4.41H717.31Z"/><path d="M795.78,322.44H781.24v22.84h-7.7V322.44H759v-6.29h36.77Z"/><path d="M862.61,315.74c11.93,0,17.92,4.41,18.69,12.81h-7.83c-.72-4.7-4.45-6.53-10.86-6.53-7.82,0-11.11,2.7-11.11,8.65s3.33,8.74,11.11,8.74c6.37,0,10.14-1.87,10.86-6.61h7.83c-.77,8.44-6.76,12.9-18.69,12.9-13.17,0-18.81-5.33-18.81-15S849.44,315.74,862.61,315.74Z"/><path d="M904.6,345.28h-7.69V316.15h7.69Z"/><path d="M956.72,322.44H942.19v22.84h-7.7V322.44H920v-6.29h36.77Z"/><path d="M971.14,316.15h9.28l11.5,13.28,11.5-13.28h9.28l-16.93,19.56v9.57h-7.7v-9.57Z"/><path d="M1079.53,315.74c11.93,0,17.92,4.41,18.69,12.81h-7.83c-.72-4.7-4.44-6.53-10.86-6.53-7.82,0-11.11,2.7-11.11,8.65s3.33,8.74,11.11,8.74c6.37,0,10.14-1.87,10.86-6.61h7.83c-.77,8.44-6.76,12.9-18.69,12.9-13.17,0-18.81-5.33-18.81-15S1066.36,315.74,1079.53,315.74Z"/><path d="M1113.4,330.67c0-9.65,5.64-14.93,18.81-14.93s18.81,5.32,18.81,14.93-5.68,15-18.81,15S1113.4,340.37,1113.4,330.67Zm29.93,0c0-5.9-3.08-8.65-11.12-8.65s-11.11,2.7-11.11,8.65,3.12,8.74,11.11,8.74S1143.33,336.63,1143.33,330.67Z"/><path d="M1205.2,316.15v29.13h-10.47l-20.4-21.85v21.85h-7.69V316.15h10.43L1197.51,338V316.15Z"/><path d="M1239.41,315.74c11.93,0,17.92,4.41,18.69,12.81h-7.83c-.72-4.7-4.44-6.53-10.86-6.53-7.82,0-11.11,2.7-11.11,8.65s3.33,8.74,11.11,8.74c6.37,0,10.14-1.87,10.86-6.61h7.83c-.77,8.44-6.76,12.9-18.69,12.9-13.16,0-18.81-5.33-18.81-15S1226.25,315.74,1239.41,315.74Z"/><path d="M1281.41,322.1V328h23.94v5.41h-23.94v5.91h23.94v5.95h-31.64V316.15h31.64v6Z"/><path d="M1355.93,326.85c0,6.49-4.66,10.65-11.46,10.65h-15.81v7.78H1321V316.15h23.51C1351.27,316.15,1355.93,320.36,1355.93,326.85Zm-7.69,0c0-4.41-3.59-4.41-5.9-4.41h-13.68v8.78h13.68C1344.65,331.22,1348.24,331.22,1348.24,326.85Z"/><path d="M1407.12,322.44h-14.54v22.84h-7.7V322.44h-14.53v-6.29h36.77Z"/><path d="M230.54,320.51a15.18,15.18,0,0,1-7.61-2.05L151.18,277a15.27,15.27,0,0,1-7.62-13.19V181a15.29,15.29,0,0,1,7.62-13.2l71.74-41.42a15.32,15.32,0,0,1,15.25,0l71.74,41.42a15.29,15.29,0,0,1,7.62,13.2v82.85A15.27,15.27,0,0,1,309.91,277l-71.75,41.42A15.19,15.19,0,0,1,230.54,320.51Zm0-191.17a10.3,10.3,0,0,0-5.13,1.37l-71.74,41.42a10.27,10.27,0,0,0-5.12,8.87v82.85a10.26,10.26,0,0,0,5.12,8.86l71.75,41.42a10.37,10.37,0,0,0,10.23,0l71.75-41.42a10.26,10.26,0,0,0,5.12-8.86V181a10.27,10.27,0,0,0-5.12-8.87l-71.74-41.42A10.26,10.26,0,0,0,230.55,129.34Zm0,164.11L169,257.94v-71l61.51-35.51,61.52,35.51v71ZM174,255.05l56.51,32.62,56.52-32.62V189.79l-56.52-32.62L174,189.8Z"/><path d="M87,320.51a15.18,15.18,0,0,1-7.61-2.05L7.62,277A15.27,15.27,0,0,1,0,263.85V181a15.29,15.29,0,0,1,7.62-13.2l71.75-41.42a15.3,15.3,0,0,1,15.24,0l71.74,41.42A15.29,15.29,0,0,1,174,181v82.85A15.27,15.27,0,0,1,166.35,277L94.6,318.46A15.19,15.19,0,0,1,87,320.51Zm0-191.17a10.21,10.21,0,0,0-5.12,1.37L10.12,172.13A10.27,10.27,0,0,0,5,181v82.85a10.26,10.26,0,0,0,5.12,8.86l71.75,41.42a10.37,10.37,0,0,0,10.23,0l71.75-41.42a10.26,10.26,0,0,0,5.12-8.86V181a10.27,10.27,0,0,0-5.12-8.87L92.11,130.71A10.26,10.26,0,0,0,87,129.34Zm0,164.11L25.47,257.94v-71L87,151.4l61.52,35.51v71Zm-56.51-38.4L87,287.67l56.52-32.62V189.79L87,157.17,30.47,189.8Z"/><path d="M158.75,196.16a15.21,15.21,0,0,1-7.62-2L79.38,152.7a15.28,15.28,0,0,1-7.62-13.2V56.66a15.28,15.28,0,0,1,7.62-13.2L151.13,2a15.25,15.25,0,0,1,15.24,0l71.75,41.42a15.29,15.29,0,0,1,7.61,13.2V139.5a15.29,15.29,0,0,1-7.61,13.2l-71.75,41.42A15.24,15.24,0,0,1,158.75,196.16ZM158.75,5a10.16,10.16,0,0,0-5.12,1.37L81.88,47.79a10.26,10.26,0,0,0-5.12,8.87V139.5a10.29,10.29,0,0,0,5.12,8.87l71.75,41.42a10.41,10.41,0,0,0,10.24,0l71.75-41.42a10.27,10.27,0,0,0,5.11-8.87V56.66a10.27,10.27,0,0,0-5.11-8.87L163.87,6.37A10.16,10.16,0,0,0,158.75,5Zm0,164.11L97.24,133.59v-71l61.51-35.52,61.51,35.52v71Zm-56.51-38.4,56.51,32.62,56.51-32.62V65.45L158.75,32.83,102.24,65.45Z"/><path d="M302.22,196.16a15.24,15.24,0,0,1-7.62-2L222.86,152.7a15.28,15.28,0,0,1-7.62-13.2V56.66a15.28,15.28,0,0,1,7.62-13.2L294.6,2a15.25,15.25,0,0,1,15.24,0l71.75,41.42a15.28,15.28,0,0,1,7.62,13.2V139.5a15.28,15.28,0,0,1-7.62,13.2l-71.75,41.42A15.21,15.21,0,0,1,302.22,196.16ZM302.22,5a10.16,10.16,0,0,0-5.12,1.37L225.36,47.79a10.26,10.26,0,0,0-5.12,8.87V139.5a10.27,10.27,0,0,0,5.12,8.87l71.74,41.42a10.41,10.41,0,0,0,10.24,0l71.75-41.42a10.26,10.26,0,0,0,5.12-8.87V56.66a10.26,10.26,0,0,0-5.12-8.87L307.34,6.37A10.16,10.16,0,0,0,302.22,5Zm0,164.11-61.51-35.52v-71l61.51-35.52,61.51,35.52v71Zm-56.51-38.4,56.51,32.62,56.52-32.62V65.45L302.22,32.83,245.71,65.45Z"/><path d="M158.75,444.72a15.21,15.21,0,0,1-7.62-2L79.38,401.26a15.28,15.28,0,0,1-7.62-13.2V305.22A15.28,15.28,0,0,1,79.38,292l71.75-41.42a15.28,15.28,0,0,1,15.24,0L238.12,292a15.29,15.29,0,0,1,7.61,13.2v82.84a15.29,15.29,0,0,1-7.61,13.2l-71.75,41.42A15.24,15.24,0,0,1,158.75,444.72Zm0-191.16a10.26,10.26,0,0,0-5.12,1.37L81.88,296.35a10.26,10.26,0,0,0-5.12,8.87v82.84a10.28,10.28,0,0,0,5.12,8.87l71.75,41.42a10.38,10.38,0,0,0,10.24,0l71.75-41.42a10.27,10.27,0,0,0,5.11-8.87V305.22a10.27,10.27,0,0,0-5.11-8.87l-71.75-41.42A10.26,10.26,0,0,0,158.75,253.56Zm0,164.11L97.24,382.15v-71l61.51-35.52,61.51,35.52v71Zm-56.51-38.4,56.51,32.62,56.51-32.62V314l-56.51-32.62L102.24,314Z"/><path d="M302.22,444.72a15.24,15.24,0,0,1-7.62-2l-71.74-41.42a15.28,15.28,0,0,1-7.62-13.2V305.22a15.28,15.28,0,0,1,7.62-13.2L294.6,250.6a15.25,15.25,0,0,1,15.24,0L381.59,292a15.28,15.28,0,0,1,7.62,13.2v82.84a15.28,15.28,0,0,1-7.62,13.2l-71.75,41.42A15.21,15.21,0,0,1,302.22,444.72Zm0-191.16a10.2,10.2,0,0,0-5.11,1.37l-71.75,41.42a10.26,10.26,0,0,0-5.12,8.87v82.84a10.26,10.26,0,0,0,5.12,8.87l71.74,41.42a10.38,10.38,0,0,0,10.24,0l71.75-41.42a10.26,10.26,0,0,0,5.12-8.87V305.22a10.26,10.26,0,0,0-5.12-8.87l-71.75-41.42A10.26,10.26,0,0,0,302.22,253.56Zm0,164.11-61.51-35.52v-71l61.51-35.52,61.51,35.52v71Zm-56.51-38.4,56.51,32.62,56.52-32.62V314l-56.51-32.62L245.71,314Z"/><path d="M374.07,320.51a15.25,15.25,0,0,1-7.62-2.05L294.71,277a15.27,15.27,0,0,1-7.62-13.19V181a15.29,15.29,0,0,1,7.62-13.2l71.74-41.42a15.32,15.32,0,0,1,15.25,0l71.74,41.42a15.29,15.29,0,0,1,7.62,13.2v82.85A15.27,15.27,0,0,1,453.44,277l-71.75,41.42A15.22,15.22,0,0,1,374.07,320.51Zm0-191.17a10.26,10.26,0,0,0-5.12,1.37l-71.74,41.42a10.27,10.27,0,0,0-5.12,8.87v82.85a10.26,10.26,0,0,0,5.12,8.86L369,314.13a10.38,10.38,0,0,0,10.24,0l71.75-41.42a10.26,10.26,0,0,0,5.12-8.86V181a10.27,10.27,0,0,0-5.12-8.87l-71.75-41.42A10.23,10.23,0,0,0,374.07,129.34Zm0,164.11-61.51-35.51v-71l61.51-35.51,61.51,35.51v71Zm-56.51-38.4,56.51,32.62,56.51-32.62V189.79l-56.51-32.62L317.56,189.8Z"/></g></g></svg>