<svg xmlns="http://www.w3.org/2000/svg" viewBox="0 0 1456.39 444.72"><defs><style>.cls-1{fill:#fff;}</style></defs><g id="Camada_2" data-name="Camada 2"><g id="Camada_1-2" data-name="Camada 1"><polygon class="cls-1" points="553.53 184.27 637.35 184.27 637.35 249.62 653.74 249.62 653.74 104.4 637.35 104.4 637.35 168.92 553.53 168.92 553.53 104.4 537.14 104.4 537.14 249.62 553.53 249.62 553.53 184.27"/><polygon class="cls-1" points="713.27 183.85 792.52 183.85 792.52 168.92 713.27 168.92 713.27 119.33 801.86 119.33 801.86 104.4 696.88 104.4 696.88 249.62 802.9 249.62 802.9 234.68 713.27 234.68 713.27 183.85"/><polygon class="cls-1" points="956.21 104.4 937.12 104.4 892.93 163.73 848.33 104.4 829.04 104.4 882.77 175.56 826.96 249.62 845.84 249.62 892.31 187.17 938.78 249.62 958.28 249.62 902.48 175.35 956.21 104.4"/><path class="cls-1" d="M1072.59,231.47q-10.78,5.49-25.72,5.49a53.26,53.26,0,0,1-22.3-4.66,55.85,55.85,0,0,1-17.84-12.76,58.43,58.43,0,0,1-11.83-19.09,64.87,64.87,0,0,1-4.25-23.65,64.15,64.15,0,0,1,4.25-23.55,58.66,58.66,0,0,1,11.83-19,54.21,54.21,0,0,1,40.14-17.22q14.94,0,25.62,5.6a91.89,91.89,0,0,1,20,14.32l11.2-12a109.18,109.18,0,0,0-11.2-9.44,66.12,66.12,0,0,0-12.66-7.26,74.32,74.32,0,0,0-14.83-4.67,88.2,88.2,0,0,0-17.94-1.66,72.55,72.55,0,0,0-29.46,5.91A71,71,0,0,0,994.38,124a75.23,75.23,0,0,0-15.25,24,81.22,81.22,0,0,0,0,58.71,72.71,72.71,0,0,0,15.25,23.76,71.42,71.42,0,0,0,52.07,21.68,80.08,80.08,0,0,0,18-1.87,74.49,74.49,0,0,0,15.15-5.19,72.65,72.65,0,0,0,13.17-8,103.15,103.15,0,0,0,11.72-10.48L1093.75,216A89.62,89.62,0,0,1,1072.59,231.47Z"/><rect class="cls-1" x="1136.7" y="104.4" width="16.39" height="145.22"/><polygon class="cls-1" points="1236.07 249.62 1252.46 249.62 1252.46 119.54 1301.21 119.54 1301.21 104.4 1187.31 104.4 1187.31 119.54 1236.07 119.54 1236.07 249.62"/><polygon class="cls-1" points="1379.63 249.62 1396.02 249.62 1396.02 191.94 1456.39 104.4 1437.3 104.4 1388.03 177.01 1339.17 104.4 1319.26 104.4 1379.63 192.15 1379.63 249.62"/><path class="cls-1" d="M558.41,331.72c-8.72-.49-10.51-.91-10.51-3.16s1.79-2.87,9.36-2.87c8,0,11.29.79,11.29,4h7.69c0-7.2-6.84-9.95-18.12-9.95s-17.92,2-17.92,8.45,5.17,8.53,18.21,9.11c9.71.46,11.42.87,11.42,3.29s-2.44,3.16-10.52,3.16c-9.75,0-12.31-1.42-12.31-4.49h-7.7c0,8.4,7.31,10.44,19.58,10.44,11.08,0,18.65-1.58,18.65-9.36C577.53,333,570.21,332.35,558.41,331.72Z"/><polygon class="cls-1" points="616.05 340.71 603.53 320.16 593.14 320.16 593.14 349.28 600.83 349.28 600.83 329.31 613.28 349.28 618.83 349.28 631.27 329.31 631.27 349.28 638.97 349.28 638.97 320.16 628.58 320.16 616.05 340.71"/><path class="cls-1" d="M669.08,320.16l-15.44,29.12h8.47l3.21-6.2h17.91l3.21,6.2h8.5l-15.47-29.12Zm-.9,17.35,6.11-11.82,6.08,11.82Z"/><path class="cls-1" d="M744.59,330.85c0-6.49-4.66-10.69-11.46-10.69H709.62v29.12h7.69V341.5h12.4l4.83,7.78h9.07l-5.52-8.65A9.93,9.93,0,0,0,744.59,330.85ZM731,335.22H717.31v-8.78H731c2.31,0,5.9,0,5.9,4.41S733.3,335.22,731,335.22Z"/><polygon class="cls-1" points="759 326.44 773.54 326.44 773.54 349.28 781.24 349.28 781.24 326.44 795.77 326.44 795.77 320.16 759 320.16 759 326.44"/><path class="cls-1" d="M862.61,326c6.41,0,10.13,1.83,10.86,6.54h7.82c-.77-8.41-6.75-12.82-18.68-12.82-13.17,0-18.81,5.29-18.81,14.94s5.64,15,18.81,15c11.93,0,17.91-4.45,18.68-12.9h-7.82c-.73,4.74-4.49,6.62-10.86,6.62-7.78,0-11.12-2.75-11.12-8.74S854.79,326,862.61,326Z"/><rect class="cls-1" x="896.91" y="320.16" width="7.7" height="29.13"/><polygon class="cls-1" points="919.95 326.44 934.49 326.44 934.49 349.28 942.18 349.28 942.18 326.44 956.72 326.44 956.72 320.16 919.95 320.16 919.95 326.44"/><polygon class="cls-1" points="991.91 333.43 980.41 320.16 971.14 320.16 988.07 339.71 988.07 349.28 995.76 349.28 995.76 339.71 1012.69 320.16 1003.42 320.16 991.91 333.43"/><path class="cls-1" d="M1079.53,326c6.41,0,10.13,1.83,10.86,6.54h7.82c-.77-8.41-6.75-12.82-18.68-12.82-13.17,0-18.81,5.29-18.81,14.94s5.64,15,18.81,15c11.93,0,17.91-4.45,18.68-12.9h-7.82c-.73,4.74-4.49,6.62-10.86,6.62-7.78,0-11.12-2.75-11.12-8.74S1071.71,326,1079.53,326Z"/><path class="cls-1" d="M1132.21,319.74c-13.17,0-18.81,5.29-18.81,14.94s5.64,15,18.81,15,18.81-5.37,18.81-15S1145.34,319.74,1132.21,319.74Zm0,23.68c-8,0-11.12-2.75-11.12-8.74s3.08-8.66,11.12-8.66,11.12,2.75,11.12,8.66S1140.21,343.42,1132.21,343.42Z"/><polygon class="cls-1" points="1197.5 342.04 1177.07 320.16 1166.63 320.16 1166.63 349.28 1174.33 349.28 1174.33 327.44 1194.72 349.28 1205.2 349.28 1205.2 320.16 1197.5 320.16 1197.5 342.04"/><path class="cls-1" d="M1239.41,326c6.41,0,10.13,1.83,10.86,6.54h7.82c-.77-8.41-6.75-12.82-18.68-12.82-13.17,0-18.81,5.29-18.81,14.94s5.64,15,18.81,15c11.93,0,17.91-4.45,18.68-12.9h-7.82c-.73,4.74-4.49,6.62-10.86,6.62-7.78,0-11.12-2.75-11.12-8.74S1231.59,326,1239.41,326Z"/><polygon class="cls-1" points="1273.71 349.28 1305.35 349.28 1305.35 343.33 1281.4 343.33 1281.4 337.43 1305.35 337.43 1305.35 332.02 1281.4 332.02 1281.4 326.11 1305.35 326.11 1305.35 320.16 1273.71 320.16 1273.71 349.28"/><path class="cls-1" d="M1344.47,320.16H1321v29.12h7.69V341.5h15.82c6.8,0,11.46-4.16,11.46-10.65S1351.27,320.16,1344.47,320.16Zm-2.14,15.06h-13.68v-8.78h13.68c2.31,0,5.9,0,5.9,4.41S1344.64,335.22,1342.33,335.22Z"/><polygon class="cls-1" points="1370.35 326.44 1384.88 326.44 1384.88 349.28 1392.58 349.28 1392.58 326.44 1407.12 326.44 1407.12 320.16 1370.35 320.16 1370.35 326.44"/><path class="cls-1" d="M453.44,167.8l-64.23-37.08V56.66a15.28,15.28,0,0,0-7.62-13.2L309.84,2A15.25,15.25,0,0,0,294.6,2l-64.11,37L166.37,2a15.25,15.25,0,0,0-15.24,0L79.38,43.46a15.28,15.28,0,0,0-7.62,13.2v74.11l-64.14,37A15.29,15.29,0,0,0,0,181v82.85A15.27,15.27,0,0,0,7.62,277l64.14,37v74a15.28,15.28,0,0,0,7.62,13.2l71.75,41.42a15.25,15.25,0,0,0,15.24,0l64.12-37,64.12,37a15.23,15.23,0,0,0,15.23,0l71.75-41.42a15.28,15.28,0,0,0,7.62-13.2V314.12L453.44,277a15.27,15.27,0,0,0,7.62-13.19V181A15.29,15.29,0,0,0,453.44,167.8ZM297.1,6.37a10.25,10.25,0,0,1,10.24,0l71.75,41.42a10.26,10.26,0,0,1,5.12,8.87v71.17l-2.52-1.45a15.28,15.28,0,0,0-15.24,0L363.74,128V62.57L302.22,27.05,245.73,59.67v-3a15.29,15.29,0,0,0-7.61-13.2l-2.63-1.52Zm87.11,304.87-5,2.9a10.43,10.43,0,0,1-10.24,0l-61.64-35.6,2.6-1.5a15.27,15.27,0,0,0,7.62-13.19v-3l61.56,35.54a10.27,10.27,0,0,1,5.12,8.87Zm-307.45-6a10.29,10.29,0,0,1,5.12-8.87L87,293.43l0,0,56.58-32.66v3.06A15.27,15.27,0,0,0,151.18,277l2.55,1.47L97.24,311.13v0l-5.14,3a10.42,10.42,0,0,1-10.23,0l-5.11-2.95ZM220.24,56.66a10.26,10.26,0,0,1,5.12-8.87l5.13-3,5.13,3a10.27,10.27,0,0,1,5.11,8.87v5.89l0,0v65.28l-2.54-1.47a15.32,15.32,0,0,0-15.25,0l-2.66,1.54V62.57l0,0Zm92.29,207.19a10.26,10.26,0,0,1-5.12,8.86l-5.1,3-5.1-3a10.26,10.26,0,0,1-5.12-8.86v-6l5-2.89a10.25,10.25,0,0,1,10.24,0l5.19,3ZM148.56,181a10.27,10.27,0,0,1,5.12-8.87l5.09-2.93,5.08,2.93A10.27,10.27,0,0,1,169,181v5.85l-5.1,2.94a10.38,10.38,0,0,1-10.24,0l-5.07-2.93Zm92.17-47.36v5.86a10.27,10.27,0,0,1-5.11,8.87l-5.13,3-5.13-3a10.26,10.26,0,0,1-5.12-8.87v-5.79l5.19-3a10.25,10.25,0,0,1,10.24,0ZM238.12,292l-2.55-1.47,51.52-29.75v3.05A15.27,15.27,0,0,0,294.71,277l2.52,1.46-51.5,29.73v-3A15.29,15.29,0,0,0,238.12,292Zm-22.88,16.21-51.45-29.71,2.56-1.48A15.27,15.27,0,0,0,174,263.85v-3.06l51.5,29.73-2.61,1.5a15.28,15.28,0,0,0-7.62,13.2ZM174,181a15.29,15.29,0,0,0-7.62-13.2l-2.58-1.49,51.47-29.72v2.91a15.28,15.28,0,0,0,7.62,13.2l2.63,1.52L174,184Zm113.09,74-56.57,32.66L174,255V189.8l56.51-32.63,56.52,32.63ZM169,252.1l-2.6-1.5a15.3,15.3,0,0,0-15.24,0l-2.57,1.48V192.64l2.57,1.48a15.25,15.25,0,0,0,15.24,0l2.6-1.5Zm123.12-59.43,2.51,1.45a15.25,15.25,0,0,0,15.24,0l2.69-1.55v59.58l-2.69-1.55a15.3,15.3,0,0,0-15.24,0l-2.51,1.45ZM153.63,254.93a10.25,10.25,0,0,1,10.24,0l5.1,2.94v6a10.26,10.26,0,0,1-5.12,8.86l-5.06,2.93,0,0,0,0-5-2.92a10.26,10.26,0,0,1-5.12-8.86v-6Zm66.63,56.2,0,0v-5.89a10.27,10.27,0,0,1,5.12-8.87l5.11-3,.07.05h0l5.05,2.91a10.28,10.28,0,0,1,5.11,8.87v5.89l0,0v.09l-5.05,2.92a10.42,10.42,0,0,1-10.23,0l-5.17-3Zm87.08-121.34a10.38,10.38,0,0,1-10.24,0l-5-2.89V181a10.27,10.27,0,0,1,5.12-8.87l5.1-2.94,5.1,2.94a10.27,10.27,0,0,1,5.12,8.87v5.8Zm-12.63-22a15.29,15.29,0,0,0-7.62,13.2v3l-51.6-29.79,2.63-1.52a15.29,15.29,0,0,0,7.61-13.2v-3l51.58,29.78Zm7.51-4.47-56.49-32.61V65.44l56.49-32.61,56.51,32.62v65.26Zm-87-32.61-56.49,32.61-56.51-32.62V65.45l56.51-32.62,56.49,32.61Zm-61.47,35.59-2.59,1.49a15.29,15.29,0,0,0-7.62,13.2v3L81.88,148.37a10.28,10.28,0,0,1-5.12-8.87v-5.84l5.11-2.95a10.25,10.25,0,0,1,10.24,0ZM143.5,189.8V255L87,287.65l-56.48-32.6V189.8L87,157.17Zm15.26,91.62L215.24,314v65.25l-56.49,32.61-56.51-32.62V314.06Zm61.5,35.51,2.67,1.54a15.23,15.23,0,0,0,15.23,0l2.55-1.48v65.16l0,0v5.89a10.27,10.27,0,0,1-5.11,8.87l-5.13,3-5.13-3a10.26,10.26,0,0,1-5.12-8.87v-5.89l0,0Zm25.47-2.84,56.57-32.66L358.73,314v65.26l-56.52,32.62-56.49-32.61Zm71.83-59V189.8l56.51-32.63,56.51,32.63v65.25l-56.51,32.63Zm0-71.14V181a15.29,15.29,0,0,0-7.62-13.2l-2.6-1.5L369,130.71a10.25,10.25,0,0,1,10.24,0l5,2.9v5.89a10.26,10.26,0,0,1-5.12,8.87ZM76.76,56.66a10.28,10.28,0,0,1,5.12-8.87L153.63,6.37a10.25,10.25,0,0,1,10.24,0l61.62,35.57-2.63,1.52a15.28,15.28,0,0,0-7.62,13.2v3L158.75,27.05,97.24,62.57V127.9l-2.63-1.52a15.28,15.28,0,0,0-15.24,0l-2.61,1.5ZM10.12,272.71A10.26,10.26,0,0,1,5,263.85V181a10.27,10.27,0,0,1,5.12-8.87l61.64-35.59v3a15.28,15.28,0,0,0,7.62,13.2l2.68,1.54L25.47,186.91v71L82,290.54,79.38,292a15.28,15.28,0,0,0-7.62,13.2v3.08ZM163.87,438.35a10.38,10.38,0,0,1-10.24,0L81.88,396.93a10.28,10.28,0,0,1-5.12-8.87V317l2.61,1.51a15.23,15.23,0,0,0,15.23,0l2.64-1.53v65.21l61.51,35.52,56.49-32.62v3a15.28,15.28,0,0,0,7.62,13.2l2.63,1.52Zm220.34-50.29a10.26,10.26,0,0,1-5.12,8.87l-71.75,41.42a10.38,10.38,0,0,1-10.24,0l-61.61-35.57,2.63-1.52a15.29,15.29,0,0,0,7.61-13.2v-3l56.49,32.62,61.52-35.52V316.9l2.72,1.57a15.25,15.25,0,0,0,15.24,0l2.52-1.46Zm66.73-115.35-61.73,35.64v-3.13a15.28,15.28,0,0,0-7.62-13.2l-2.52-1.45,56.51-32.63v-71L379,154.22l2.63-1.52a15.28,15.28,0,0,0,7.62-13.2v-3l61.73,35.64a10.27,10.27,0,0,1,5.12,8.87v82.85A10.26,10.26,0,0,1,450.94,272.71Z"/></g></g></svg>