<svg xmlns="http://www.w3.org/2000/svg" viewBox="0 0 338.18 292.94"><defs><style>.cls-1{fill:#808081;}.cls-2{fill:#fff;}.cls-3{fill:#0871b8;}</style></defs><g id="Camada_2" data-name="Camada 2"><g id="Camada_1-2" data-name="Camada 1"><polygon class="cls-1" points="84.55 0 253.63 0 331.65 135.12 334.78 140.55 338.18 146.44 334.75 152.37 331.62 157.79 253.63 292.87 84.54 292.87 0 146.43 84.55 0"/><path class="cls-2" d="M84.55,0l-4.7,8.14,1.35.78L85.9.78,84.57,0V0h0V0l0,0Zm-9.4,16.27-4.69,8.14,1.35.78,4.7-8.14-1.36-.78ZM65.76,32.54l-4.7,8.14,1.36.78,4.69-8.14-1.35-.78Zm-9.4,16.27-3.68,6.37v0h0l-.09.15h0L51.67,57l1.35.78,4.7-8.14-1.36-.78ZM47,65.08l-3.28,5.68h0v0h0v0l-1.39,2.4,1.36.78,4.7-8.14L47,65.08ZM37.58,81.35l-2.85,4.93h0v0h0l-1.8,3.12,1.36.78,4.69-8.14-1.35-.78Zm-9.4,16.27-2.47,4.29h0l0,0h0v0h0l0,0h0l0,0h0l-2.12,3.69,1.35.78,4.7-8.14-1.36-.78Zm-9.39,16.27L14.09,122l1.36.78,4.7-8.14-1.36-.78ZM9.4,130.16l-2.3,4h0l0,0h0v0H7l0,0H7l0,0H7l-2.27,4,1.35.78,4.7-8.14-1.35-.78Zm-8,15.49L0,146.43H0l4.69,8.14,1.36-.79-4.69-8.13Zm9.39,16.27-1.36.78.37.64h0l0,0h0l0,0h0v0h0l4.24,7.34,1.35-.79-4.69-8.13Zm9.39,16.27-1.36.78,4.7,8.14,1.36-.79-4.7-8.13Zm9.39,16.27-1.35.78,1.53,2.65h0v0h0v0h0l3.13,5.43,1.36-.79-4.7-8.13Zm9.4,16.27-1.36.78h0v0h0v0h0v0h0v0h0v0h0v0h0l0,0h0v0h0l0,0h0l0,0h0v0h0v0h0l0,0h0v0h0v0h0v0h0l0,0h0v0h0v0h0v0h0v0h0l0,0,0,0h0l0,.06h0v0h0l0,.05h0l0,.06h0v0h0l.07.11h0l0,0h0v0h0l0,0h0l.13.23h0l.16.28h0l0,.06h0l.05.08h0l3.48,6,1.35-.79-4.69-8.13ZM48.32,227l-1.36.78,4.7,8.14,1.36-.78L48.32,227Zm9.39,16.27-1.35.78,4.69,8.14,1.36-.78-4.7-8.14Zm9.4,16.27-1.36.78L69.63,267h0l0,.07h0l.75,1.3,1.35-.78-4.69-8.14Zm9.39,16.27-1.36.78,2,3.37h0v0h0v0h0l0,0h0l.09.16h0c1.25,2.15,2.57,4.45,2.57,4.45L81.2,284l-4.7-8.14Zm17.43,15.5H84.54v1.55h0v0h9.39v-1.56Zm-9.39,1.55h0Zm18.78-1.55v1.56h9.39v-1.56Zm18.79,0v1.56h9.39v-1.56Zm18.78,0v1.56h9.4v-1.56Zm28.18,0h-9.39v1.56h9.39v-1.56Zm9.4,0v1.56h9.39v-1.56Zm18.79,0v1.56h9.39v-1.56Zm18.78,0v1.56h9.4v-1.56Zm28.18,0h-9.39v1.56h9.39v-1.56ZM257,284l-4.69,8.12,1.34.77h0l-1.34-.77,1.34.77h0l.2-.35h0l.53-.91h0v0h0l.06-.11h0a1.09,1.09,0,0,0,.08-.15h0l.18-.32h0l.19-.33h0l0-.08h0l0-.09h0l0,0h0v0h0v0h0l0,0h0l0,0h0v0h0v0h0l0,0h0v0h0l0,0h0l0,0h0v0h0v0h0l0,0h0l0-.05h0l0,0v0h0v0h0l0,0h0l.06-.09h0l.06-.1h0v0h0l.05-.09h0l.87-1.5h0l1.76-3.05L257,284Zm9.39-16.27-4.7,8.13,1.36.79,4.7-8.14-1.36-.78Zm9.39-16.27-4.69,8.13,1.35.79,3-5.19h0v0h0v0h0l1.62-2.81-1.36-.78Zm9.4-16.27-4.7,8.13,1.36.78L284,240.2h0l0,0h0l0-.05h0l2.38-4.13-1.35-.78Zm9.39-16.27-4.7,8.13,1.36.78,4.7-8.13-1.36-.78Zm9.39-16.27-4.69,8.13,1.35.78,4.7-8.13-1.36-.78Zm9.4-16.27-4.7,8.13,1.36.78.2-.34h0c.06-.12.14-.25.23-.41h0a2.55,2.55,0,0,0,.14-.24h0l.08-.13h0l0,0h0l0,0h0l0,0h0v0h0l0,0h0v0h.05v0h0v0h0l0-.06h0v0h0v0h0l0,0h0v0h0l3.63-6.3-1.35-.78Zm9.39-16.27-4.7,8.13,1.36.78,4.7-8.13-1.36-.78Zm9.4-16.27-1.85,3.2-2.85,4.93,1.35.78,2.85-4.93.08-.14h0l0-.07h0l.05-.08v0h0v0h0v0h0l0,0h0v0h0l1.6-2.77-1.35-.78Zm1.37-15.49-1.36.78,1.29,2.23,3.4,5.89,1.34-.77h0l-1.34.77,1.34-.77h0l-.15-.25h0c-.09-.17-.22-.4-.38-.67h0l-.55-1h0l-.62-1.08h0c-.22-.36-.43-.73-.63-1.08h0l-.54-.94h0c-.16-.28-.29-.51-.39-.67h0l-.14-.25h0l-1.29-2.23Zm-9.39-16.27-1.36.78,4.7,8.14,1.35-.79-2.34-4.06h0v0h0v0h0v0h0v0h0l0,0h0l0,0h0l-.05-.09h0v0l0,0h0l0,0h0l0,0h0l-2.08-3.61Zm-9.4-16.27-1.35.78,4.7,8.14,1.35-.79-3.21-5.56h0l0,0h0l0,0h0l-.05-.08h0l0-.08h0L316,108h0v0h0l0,0h0v0h0l-1.2-2.08Zm-9.39-16.27-1.36.78,4.7,8.14,1.36-.79-4.7-8.13Zm-9.39-16.27-1.36.78,4.7,8.14,1.35-.79-4.69-8.13ZM286.52,57l-1.35.78,4.69,8.14,1.36-.79L286.52,57ZM277.13,40.7l-1.36.78,4.7,8.14,1.36-.79s-2.54-4.38-3.88-6.71h0l0-.07h0l0,0h0v0h0v0h0l0,0h0v0h0v0l0,0h0v0h0l-.05-.09h0l0-.05h0v0h0l-.48-.83Zm-9.39-16.27-1.36.78,4.7,8.14,1.35-.79-4.69-8.13Zm-9.4-16.27L257,8.94l4.69,8.14,1.36-.79L259.38,10h0v0h0l0,0v0h0l0,0h0v0h0v0h0l0,0h0l0,0h0l0,0h0l0-.07h0l0-.07h0c-.43-.76-.73-1.27-.73-1.27ZM244.26,0V1.57h9.37V0h0V0h-9.37ZM225.48,0V1.57h9.39V0h-9.39ZM206.69,0V1.57h9.39V0h-9.39ZM187.9,0V1.57h9.4V0h-9.4ZM169.12,0V1.57h9.39V0ZM150.33,0V1.57h9.39V0ZM131.54,0V1.57h9.39V0ZM112.75,0V1.57h9.4V0ZM94,0V1.57h9.39V0Z"/><path class="cls-3" d="M234.76,20.08H103.42a12.64,12.64,0,0,0-10.93,6.31L26.82,140.13a12.62,12.62,0,0,0,0,12.61L92.49,266.49a12.62,12.62,0,0,0,10.92,6.31H234.76a12.62,12.62,0,0,0,10.92-6.31l65.68-113.75a12.62,12.62,0,0,0,0-12.61L245.68,26.38A12.6,12.6,0,0,0,234.76,20.08Z"/><rect class="cls-2" x="329.52" y="154.15" width="6.26" height="1.24" transform="translate(32.3 365.48) rotate(-60)"/><rect class="cls-2" x="325.18" y="151.01" width="6.26" height="2.5" transform="translate(32.36 360.55) rotate(-60.02)"/><polygon class="cls-2" points="319.01 149.59 321.18 148.35 320.1 146.46 320.1 146.45 321.2 144.54 319.04 143.29 318.67 143.93 318.65 143.91 318.08 142.91 315.91 144.15 317.19 146.4 317.21 146.44 317.21 146.45 315.9 148.71 318.07 149.97 318.65 148.97 319.01 149.59"/><rect class="cls-2" x="332.07" y="135.06" width="1.25" height="6.26" transform="translate(-24.76 183.02) rotate(-29.71)"/><polygon class="cls-2" points="322.98 140.12 320.8 141.36 323.7 146.44 323.71 146.46 320.78 151.53 322.95 152.78 326.08 147.36 324.53 146.46 324.51 146.45 326.08 145.56 322.98 140.12"/><rect class="cls-2" x="327.09" y="137.54" width="2.51" height="6.26" transform="translate(-26.57 181.1) rotate(-29.69)"/><polygon class="cls-2" points="13.77 146.37 13.79 146.38 12.22 147.26 15.29 152.72 17.47 151.49 14.6 146.4 14.59 146.38 17.55 141.33 15.38 140.06 12.22 145.47 13.77 146.37"/><rect class="cls-2" x="6.89" y="139.3" width="6.26" height="2.5" transform="translate(-116.36 78.24) rotate(-59.68)"/><rect class="cls-2" x="2.57" y="137.4" width="6.26" height="1.24" transform="translate(-116.18 73) rotate(-59.55)"/><rect class="cls-2" x="8.68" y="149.01" width="2.51" height="6.26" transform="translate(-73.39 24.46) rotate(-29.39)"/><rect class="cls-2" x="4.94" y="151.47" width="1.25" height="6.26" transform="translate(-75.07 22.58) rotate(-29.35)"/><polygon class="cls-2" points="19.31 143.27 17.13 144.5 18.2 146.41 18.2 146.41 17.09 148.31 19.25 149.58 19.62 148.94 19.64 148.96 20.2 149.96 22.38 148.73 21.11 146.47 21.09 146.43 21.09 146.43 22.41 144.17 20.25 142.9 19.66 143.9 19.31 143.27"/><rect class="cls-2" x="83.32" y="278.42" width="2.5" height="6.26" transform="translate(-131.99 82.74) rotate(-30.73)"/><rect class="cls-2" x="79.64" y="280.98" width="1.24" height="6.26" transform="translate(-133.63 80.62) rotate(-30.65)"/><polygon class="cls-2" points="91.88 280.38 88.89 275.34 86.74 276.62 89.94 282 91.48 281.09 91.5 281.08 91.51 282.88 97.77 282.84 97.75 280.33 91.91 280.38 91.88 280.38"/><polygon class="cls-2" points="95.08 274.72 95.08 274.71 93.74 272.46 91.58 273.74 92.17 274.74 91.45 274.74 91.47 277.25 93.66 277.23 93.66 277.24 94.78 279.13 96.94 277.85 96.56 277.21 96.59 277.21 97.73 277.2 97.71 274.7 95.13 274.72 95.08 274.72"/><rect class="cls-2" x="91.57" y="291.63" width="6.26" height="1.25" transform="translate(-1.92 0.63) rotate(-0.38)"/><rect class="cls-2" x="91.54" y="285.99" width="6.26" height="2.51" transform="translate(-2.08 0.69) rotate(-0.42)"/><rect class="cls-2" x="76.85" y="8.38" width="6.26" height="1.24" transform="translate(32.1 73.69) rotate(-59.91)"/><polygon class="cls-2" points="91.23 11.9 89.68 11 86.54 16.42 88.71 17.67 91.64 12.61 91.67 12.61 97.51 12.59 97.5 10.08 91.24 10.1 91.25 11.91 91.23 11.9"/><polygon class="cls-2" points="93.45 15.73 91.26 15.74 91.27 18.24 91.99 18.24 91.41 19.24 93.58 20.5 94.9 18.23 94.9 18.23 94.95 18.23 97.53 18.22 97.52 15.71 96.38 15.72 96.35 15.72 96.72 15.08 94.55 13.82 93.45 15.73 93.45 15.73"/><rect class="cls-2" x="81.18" y="10.26" width="6.26" height="2.5" transform="translate(32.1 78.7) rotate(-59.92)"/><rect class="cls-2" x="91.2" y="0.07" width="6.26" height="1.25" transform="translate(0 0.35) rotate(-0.21)"/><rect class="cls-2" x="91.22" y="4.45" width="6.26" height="2.51" transform="translate(-0.02 0.4) rotate(-0.24)"/><rect class="cls-2" x="252.39" y="8.24" width="2.5" height="6.26" transform="matrix(0.86, -0.51, 0.51, 0.86, 29.75, 131.1)"/><rect class="cls-2" x="257.32" y="5.69" width="1.24" height="6.26" transform="translate(31.54 132.74) rotate(-30.65)"/><polygon class="cls-2" points="246.73 11.84 246.71 11.85 246.7 10.04 240.44 10.09 240.46 12.59 246.3 12.55 246.33 12.55 249.31 17.58 251.47 16.3 248.27 10.92 246.73 11.84"/><polygon class="cls-2" points="246.74 15.68 244.55 15.69 244.55 15.69 243.43 13.8 241.27 15.08 241.65 15.71 241.62 15.71 240.48 15.72 240.5 18.23 243.08 18.21 243.13 18.21 243.13 18.21 244.47 20.46 246.63 19.18 246.03 18.19 246.75 18.18 246.74 15.68"/><rect class="cls-2" x="240.41" y="4.43" width="6.26" height="2.51" transform="translate(-0.03 1.71) rotate(-0.4)"/><rect class="cls-2" x="240.37" y="0.04" width="6.26" height="1.25" transform="translate(0 2.01) rotate(-0.47)"/><rect class="cls-2" x="250.51" y="280.23" width="6.26" height="2.5" transform="translate(-117.09 359.74) rotate(-59.9)"/><rect class="cls-2" x="254.84" y="283.37" width="6.26" height="1.24" transform="translate(-117.08 364.83) rotate(-59.91)"/><polygon class="cls-2" points="244.37 272.5 243.06 274.76 243.06 274.76 243.01 274.76 240.42 274.77 240.43 277.28 241.57 277.28 241.6 277.28 241.23 277.92 243.4 279.17 244.5 277.27 244.5 277.26 246.69 277.25 246.68 274.75 245.96 274.75 246.54 273.75 244.37 272.5"/><polygon class="cls-2" points="246.29 280.39 240.44 280.41 240.45 282.92 246.72 282.89 246.71 281.09 246.72 281.1 248.28 281.99 251.41 276.58 249.25 275.32 246.31 280.39 246.29 280.39"/><rect class="cls-2" x="240.49" y="291.67" width="6.26" height="1.25" transform="translate(-1.05 0.88) rotate(-0.21)"/><rect class="cls-2" x="240.47" y="286.03" width="6.26" height="2.51" transform="translate(-1.21 1.03) rotate(-0.24)"/></g></g></svg>